<svg width="45" height="45" viewBox="0 0 45 45" fill="none" xmlns="http://www.w3.org/2000/svg">
<g clip-path="url(#clip0_5637_1808)">
<rect width="44.5312" height="44.5312" rx="4" fill="white"/>
<path d="M0 4C0 1.79086 1.79086 0 4 0H40.5C42.7091 0 44.5 1.79086 44.5 4V40.5C44.5 42.7091 42.7091 44.5 40.5 44.5H4C1.79086 44.5 0 42.7091 0 40.5L0 4Z" fill="white"/>
<path fill-rule="evenodd" clip-rule="evenodd" d="M40.5 1H4C2.34315 1 1 2.34315 1 4V40.5C1 42.1569 2.34315 43.5 4 43.5H40.5C42.1569 43.5 43.5 42.1569 43.5 40.5V4C43.5 2.34315 42.1569 1 40.5 1ZM4 0C1.79086 0 0 1.79086 0 4V40.5C0 42.7091 1.79086 44.5 4 44.5H40.5C42.7091 44.5 44.5 42.7091 44.5 40.5V4C44.5 1.79086 42.7091 0 40.5 0H4Z" fill="#DDDDDD"/>
<g clip-path="url(#clip1_5637_1808)">
<path fill-rule="evenodd" clip-rule="evenodd" d="M2.09546 16.6255H6.12877V17.8503H4.97891V20.7941H3.29089L3.3056 17.8503H2.09546V16.6255Z" fill="#1866AC"/>
<path fill-rule="evenodd" clip-rule="evenodd" d="M5.72156 20.7941L7.32135 16.6255H9.04613L10.6842 20.7941H9.07113L8.20212 18.3164L7.35811 20.7941H5.72156Z" fill="#1866AC"/>
<path fill-rule="evenodd" clip-rule="evenodd" d="M10.3076 16.6255H14.3409V17.8503H13.1896V20.7941H11.5016L11.5178 17.8503H10.3076V16.6255Z" fill="#1866AC"/>
<path fill-rule="evenodd" clip-rule="evenodd" d="M13.9336 20.7941L15.5334 16.6255H17.2582L18.8947 20.7941H17.2832L16.4142 18.3164L15.5701 20.7941H13.9336Z" fill="#1866AC"/>
<path fill-rule="evenodd" clip-rule="evenodd" d="M7.93735 27.0479C7.95793 27.0347 7.97852 27.02 7.9991 27.0053L8.05351 26.9685L7.86824 26.4363L7.78884 26.4848C7.69914 26.5333 7.60651 26.5657 7.50211 26.5627C7.42565 26.5598 7.38301 26.5289 7.35948 26.4568C7.33448 26.3789 7.33889 26.298 7.34183 26.2172C7.36095 25.7599 7.38007 25.3026 7.39771 24.8453C7.40653 24.6277 7.3933 24.413 7.32713 24.2027C7.2742 24.0336 7.19038 23.8822 7.05805 23.7616C6.88307 23.5999 6.66839 23.5322 6.43754 23.5116C6.29491 23.4984 6.15228 23.5043 6.01112 23.5322C5.81115 23.5719 5.63911 23.6616 5.49648 23.8057C5.3318 23.9733 5.23034 24.1777 5.15241 24.3968C5.123 24.4792 5.10095 24.563 5.07448 24.6468C5.07154 24.6556 5.0436 24.7674 5.03625 24.7747C5.03037 24.7659 5.03625 24.6512 5.03478 24.6424C5.03184 24.61 5.03184 24.5762 5.03037 24.5424C5.02301 24.3615 4.99949 24.1836 4.93479 24.013C4.82892 23.7337 4.62454 23.5749 4.3334 23.5249C4.16577 23.4969 3.99667 23.4969 3.82905 23.5337C3.65995 23.569 3.50703 23.641 3.3747 23.7528C3.1909 23.9057 3.06591 24.1013 2.97916 24.3204C2.94093 24.4174 2.91152 24.5189 2.88064 24.6203L2.80859 24.8541L2.82624 24.5086C2.83065 24.4174 2.83359 24.3262 2.838 24.2336C2.84682 24.0248 2.85564 23.8175 2.86594 23.6087C2.86594 23.5954 2.86594 23.5837 2.86594 23.5675C2.8527 23.5675 2.84388 23.5675 2.83506 23.5675C2.60274 23.5778 2.37188 23.5896 2.13956 23.5999C2.13368 23.5999 2.12927 23.5999 2.12633 23.5999H2.09839V23.6425C2.09839 24.8071 2.09839 25.9687 2.09839 27.1318V27.1715H2.87182C2.90417 27.1715 2.92083 27.1558 2.92181 27.1244C2.92916 26.6612 2.9571 26.1995 3.02474 25.7408C3.06591 25.4658 3.12032 25.1952 3.21148 24.932C3.27324 24.7541 3.3497 24.5821 3.47174 24.4365C3.57761 24.3101 3.70701 24.2248 3.87904 24.216C4.09519 24.2057 4.24223 24.3042 4.31281 24.5071C4.35545 24.6291 4.37016 24.7541 4.37016 24.882C4.37016 25.0982 4.36427 25.3129 4.35839 25.529C4.3481 25.929 4.33634 26.3275 4.32457 26.7274L4.31134 27.1744H4.41574C4.58925 27.1729 4.76275 27.1729 4.93626 27.1744H5.12006V27.1538C5.12006 27.1465 5.12006 27.1376 5.12006 27.1244C5.12006 27.1082 5.12006 27.0935 5.12006 27.0774L5.13035 26.7509C5.148 26.3363 5.18476 25.9231 5.25681 25.5143C5.29504 25.2967 5.34503 25.082 5.42149 24.8732C5.47884 24.7144 5.55089 24.5615 5.66117 24.4306C5.76557 24.3071 5.89349 24.2263 6.06112 24.2189C6.29491 24.2086 6.44489 24.3145 6.50812 24.5394C6.54782 24.6821 6.5537 24.8291 6.54782 24.9762C6.539 25.2202 6.52723 25.4643 6.51694 25.7084C6.50665 25.9275 6.49783 26.1481 6.48753 26.3672C6.48018 26.5098 6.48165 26.6524 6.51694 26.7921C6.58017 27.0377 6.75809 27.1979 7.00658 27.2332C7.1698 27.2567 7.33301 27.2494 7.49476 27.2215C7.65503 27.1935 7.80354 27.1406 7.93882 27.0538L7.93735 27.0479Z" fill="#6CB043"/>
<path fill-rule="evenodd" clip-rule="evenodd" d="M12.2957 26.9978L12.3163 26.9816L12.2354 26.7537C12.2178 26.7037 12.2016 26.6537 12.1839 26.6038C12.1678 26.5567 12.1501 26.5082 12.131 26.4567C12.1148 26.4655 12.1045 26.4714 12.0942 26.4773C11.9972 26.5317 11.8957 26.5758 11.781 26.5714C11.7105 26.5685 11.6634 26.5376 11.6487 26.4685C11.634 26.4038 11.6267 26.3376 11.6267 26.2714C11.6267 25.3921 11.6267 24.5143 11.6267 23.635C11.6267 23.6291 11.6267 23.6247 11.6267 23.6188V23.61C11.6267 23.61 11.6267 23.6041 11.6267 23.6027C11.6267 23.5968 11.6267 23.5924 11.6267 23.5894V23.5703L10.7974 23.6056V23.8894C10.7974 23.9335 10.7944 23.9761 10.7929 24.0188C10.7797 24.3585 10.7518 24.6952 10.7018 25.0319C10.6606 25.3069 10.6062 25.5804 10.515 25.8436C10.4533 26.0229 10.3768 26.195 10.2548 26.342C10.1268 26.4949 9.96952 26.5773 9.76366 26.5508C9.60927 26.5317 9.50046 26.4552 9.44017 26.3111C9.38724 26.1832 9.36959 26.0479 9.37106 25.9127C9.37694 25.5068 9.38724 25.101 9.39606 24.6966C9.40488 24.3673 9.4137 24.0379 9.424 23.7071L9.42841 23.5688L9.26813 23.5777C9.15491 23.5821 9.04169 23.588 8.92847 23.5924L8.57705 23.6056L8.56969 23.8982C8.56969 23.9203 8.5697 23.9423 8.56822 23.9644C8.55793 24.3437 8.54764 24.7216 8.53882 25.101C8.53146 25.4216 8.52264 25.7421 8.5197 26.0626C8.51823 26.2656 8.55058 26.4626 8.62557 26.6523C8.74908 26.964 8.97406 27.1596 9.30637 27.2243C9.53281 27.2684 9.75778 27.2581 9.97981 27.1978C10.1651 27.1478 10.3254 27.0537 10.4606 26.9169C10.6033 26.7728 10.7047 26.6038 10.7768 26.4155C10.8312 26.2729 10.8694 26.1259 10.915 25.9803C10.9209 25.9612 10.9459 25.8862 10.9517 25.895C10.9562 25.9009 10.9591 25.9774 10.9591 25.9891C10.9591 26.1862 10.9591 26.3832 10.9591 26.5788C10.9591 26.6964 10.9767 26.8096 11.0194 26.9199C11.087 27.0949 11.2135 27.1993 11.3987 27.2331C11.512 27.2537 11.6252 27.2493 11.7384 27.2331C11.9266 27.2096 12.0942 27.139 12.2457 27.0287C12.2604 27.0184 12.2751 27.0066 12.2898 26.9949C12.2898 26.9949 12.2913 26.9934 12.2927 26.9919L12.2957 26.9978Z" fill="#61AD44"/>
<path fill-rule="evenodd" clip-rule="evenodd" d="M19.3727 26.9978L19.3933 26.9816L19.3124 26.7537C19.2948 26.7037 19.2786 26.6537 19.261 26.6038C19.2448 26.5567 19.2271 26.5082 19.208 26.4567C19.1919 26.4655 19.1816 26.4714 19.1713 26.4773C19.0742 26.5317 18.9728 26.5758 18.8581 26.5714C18.7875 26.5685 18.7404 26.5376 18.7257 26.4685C18.711 26.4038 18.7037 26.3376 18.7037 26.2714C18.7037 25.3921 18.7037 24.5143 18.7037 23.635C18.7037 23.6291 18.7037 23.6247 18.7037 23.6188V23.61C18.7037 23.61 18.7037 23.6041 18.7037 23.6027C18.7037 23.5968 18.7037 23.5924 18.7037 23.5894V23.5703L17.8744 23.6056V23.8894C17.8744 23.9335 17.8714 23.9761 17.87 24.0188C17.8567 24.3585 17.8288 24.6952 17.7788 25.0319C17.7376 25.3069 17.6832 25.5804 17.5921 25.8436C17.5303 26.0229 17.4538 26.195 17.3318 26.342C17.2039 26.4949 17.0465 26.5773 16.8407 26.5508C16.6863 26.5317 16.5775 26.4552 16.5172 26.3111C16.4643 26.1832 16.4466 26.0479 16.4481 25.9127C16.454 25.5068 16.4643 25.101 16.4731 24.6966C16.4819 24.3673 16.4907 24.0379 16.501 23.7071L16.5054 23.5688L16.3452 23.5777C16.2319 23.5821 16.1187 23.588 16.0055 23.5924L15.6541 23.6056L15.6467 23.8982C15.6467 23.9203 15.6467 23.9423 15.6453 23.9644C15.635 24.3437 15.6247 24.7216 15.6158 25.101C15.6085 25.4216 15.5997 25.7421 15.5967 26.0626C15.5953 26.2656 15.6276 26.4626 15.7026 26.6523C15.8261 26.964 16.0511 27.1596 16.3834 27.2243C16.6098 27.2684 16.8348 27.2581 17.0568 27.1978C17.2421 27.1478 17.4024 27.0537 17.5377 26.9169C17.6803 26.7728 17.7817 26.6038 17.8538 26.4155C17.9082 26.2729 17.9464 26.1259 17.992 25.9803C17.9979 25.9612 18.0229 25.8862 18.0288 25.895C18.0332 25.9009 18.0361 25.9774 18.0361 25.9891C18.0361 26.1862 18.0361 26.3832 18.0361 26.5788C18.0361 26.6964 18.0538 26.8096 18.0964 26.9199C18.164 27.0949 18.2905 27.1993 18.4758 27.2331C18.589 27.2537 18.7022 27.2493 18.8154 27.2331C19.0036 27.2096 19.1713 27.139 19.3227 27.0287C19.3374 27.0184 19.3521 27.0066 19.3668 26.9949C19.3668 26.9949 19.3683 26.9934 19.3698 26.9919L19.3727 26.9978Z" fill="#29A148"/>
<path fill-rule="evenodd" clip-rule="evenodd" d="M15.0541 26.989C15.0541 26.989 15.0673 26.9802 15.0732 26.9758L15.1556 26.9199L15.1482 26.8979C15.1482 26.8979 15.1482 26.8935 15.1467 26.892C15.1438 26.8846 15.1409 26.8773 15.1379 26.8699L15.1188 26.8155C15.1026 26.77 15.0879 26.7258 15.0732 26.6803C15.0379 26.5788 15.0026 26.4773 14.9644 26.37C14.9394 26.3832 14.9188 26.3935 14.8982 26.4038C14.6895 26.5112 14.4704 26.5744 14.2336 26.5567C14.0719 26.5435 13.969 26.4671 13.9175 26.3141C13.8793 26.198 13.8749 26.0774 13.8749 25.9583C13.8749 25.4789 13.8749 24.9996 13.8749 24.5202V24.2497H14.0998C14.3674 24.2497 14.635 24.2497 14.9027 24.2497C14.9071 24.2497 14.9115 24.2497 14.9144 24.2497H14.9424V24.2232C14.9424 24.2232 14.9438 24.2159 14.9438 24.21C14.9482 24.0527 14.9527 23.8939 14.9585 23.7365V23.7321C14.9585 23.7027 14.96 23.6733 14.9615 23.6439C14.9615 23.6351 14.9615 23.6292 14.9615 23.6233V23.5939H14.9424C14.935 23.5939 14.9262 23.5939 14.913 23.5939C14.5953 23.5939 14.2763 23.5939 13.9587 23.5939H13.8734V23.5762C13.8734 23.5762 13.8734 23.5601 13.8734 23.5454V23.4586C13.8734 23.2572 13.8734 23.0572 13.8734 22.8558V22.7808L13.741 22.7896C13.6455 22.794 13.5484 22.7984 13.4528 22.8028C13.3823 22.8058 13.3102 22.8102 13.2396 22.8146L13.1632 22.8175L13.1588 22.8999C13.1558 22.9322 13.1514 22.966 13.1485 22.9984C13.1426 23.0645 13.1352 23.1292 13.1294 23.1954L13.0941 23.5939H12.825C12.8 23.5924 12.775 23.5924 12.75 23.5924H12.7412C12.6809 23.5924 12.6206 23.5924 12.5603 23.5924C12.5559 23.5924 12.553 23.5924 12.55 23.5924H12.5221L12.5015 24.0571C12.4986 24.11 12.4956 24.1644 12.4927 24.2173C12.4927 24.2232 12.4927 24.2262 12.4927 24.232V24.2497H12.8603C12.9044 24.2497 12.9485 24.2497 12.9926 24.2497C13 24.2497 13.0073 24.2497 13.0117 24.2497H13.0353V24.2791C13.0353 24.2791 13.0353 24.282 13.0353 24.2835V24.2938C13.0353 24.4467 13.0353 24.6011 13.0353 24.754C13.0353 25.2128 13.0353 25.673 13.0382 26.1318C13.0397 26.323 13.0647 26.5126 13.1308 26.6935C13.1882 26.8523 13.2779 26.9861 13.4205 27.0817C13.5734 27.1861 13.7469 27.2287 13.9293 27.239C14.1586 27.2522 14.3851 27.2405 14.6101 27.1831C14.7703 27.142 14.9174 27.0773 15.0541 26.989Z" fill="#46A549"/>
<path fill-rule="evenodd" clip-rule="evenodd" d="M22.134 24.3322C22.1193 24.5469 22.112 24.763 22.0899 24.9777C22.0708 25.1556 22.0429 25.3335 22.0076 25.5085C21.9547 25.7688 21.8753 26.0202 21.7238 26.2422C21.6356 26.3716 21.5282 26.4804 21.3768 26.5304C21.1768 26.5951 20.9842 26.5834 20.8151 26.4437C20.7298 26.3731 20.6842 26.2746 20.6519 26.1702C20.6004 26.0011 20.5916 25.8261 20.5901 25.7041C20.5901 25.3967 20.6225 25.1482 20.7092 24.9086C20.7724 24.7336 20.8621 24.5733 20.993 24.4366C21.1886 24.2307 21.4268 24.1454 21.7076 24.169C21.79 24.1763 21.8708 24.191 21.9473 24.216C21.9885 24.2292 22.0282 24.2454 22.0664 24.266C22.0811 24.2734 22.0958 24.2807 22.109 24.2895C22.109 24.2895 22.1105 24.2895 22.112 24.291L22.1326 24.3042V24.3189C22.1326 24.3189 22.1326 24.3263 22.1326 24.3307L22.134 24.3322ZM23.5383 27.0024L23.5721 26.9774L23.5662 26.9583C23.5662 26.9583 23.5647 26.9524 23.5633 26.948C23.5294 26.8524 23.4986 26.7569 23.4648 26.6613C23.4427 26.5966 23.4206 26.5334 23.3956 26.4643C23.3692 26.4775 23.3486 26.4878 23.328 26.4966C23.2471 26.5319 23.1648 26.5642 23.0736 26.5569C22.9986 26.551 22.9531 26.5113 22.9428 26.4363C22.9354 26.3804 22.931 26.3231 22.931 26.2657C22.931 25.4732 22.931 24.6792 22.931 23.8866C22.931 23.8793 22.931 23.8734 22.9295 23.8675V23.8425L22.8957 23.8249C22.8648 23.8072 22.8325 23.7911 22.8001 23.7749H22.7987V23.7734C22.7575 23.7528 22.7163 23.7337 22.6737 23.7146C22.6413 23.6999 22.609 23.6867 22.5752 23.6749C22.3737 23.597 22.1634 23.5455 21.9429 23.5235C21.6694 23.497 21.4003 23.5073 21.1342 23.5823C20.7813 23.6823 20.4872 23.8719 20.2519 24.1513C19.9696 24.488 19.8211 24.8821 19.7652 25.3129C19.727 25.6158 19.7358 25.9173 19.7976 26.2172C19.8402 26.4231 19.9123 26.6157 20.0343 26.7892C20.1681 26.9789 20.346 27.1083 20.5666 27.1759C20.8342 27.2583 21.1048 27.2583 21.3753 27.1892C21.6988 27.1083 21.9341 26.9113 22.1017 26.6275C22.1649 26.5187 22.2134 26.4054 22.2531 26.2863L22.2737 26.2231C22.2767 26.2143 22.2796 26.2055 22.2811 26.1966C22.2826 26.1893 22.2855 26.1819 22.2884 26.1761L22.3296 26.0496V26.2657C22.3296 26.379 22.3296 26.4937 22.3296 26.6069C22.3296 26.7039 22.3384 26.801 22.3664 26.8936C22.4134 27.0539 22.509 27.1671 22.6737 27.2127C22.8075 27.2494 22.9428 27.2421 23.0766 27.2186C23.2074 27.195 23.328 27.148 23.4383 27.0774C23.4559 27.0656 23.4736 27.0554 23.4897 27.0421C23.5074 27.0289 23.5236 27.0171 23.5412 27.0024H23.5383Z" fill="#209A48"/>
<path fill-rule="evenodd" clip-rule="evenodd" d="M25.6748 26.9596L25.641 26.867C25.6189 26.8052 25.5969 26.742 25.5748 26.6803C25.5469 26.6023 25.5204 26.5259 25.491 26.4435C25.4469 26.4656 25.4072 26.4876 25.366 26.5082C25.2778 26.5509 25.1852 26.5773 25.0852 26.5597C25.0278 26.5509 24.9837 26.52 24.972 26.4626C24.9587 26.4009 24.9514 26.3362 24.9514 26.2729C24.9499 25.8024 24.9514 25.3319 24.9514 24.8614V21.9485V21.9264C24.9514 21.9162 24.9514 21.9073 24.9514 21.9015V21.8794L24.8558 21.8853C24.6338 21.897 24.4103 21.9088 24.1882 21.9191L24.1206 21.922V21.9603C24.1206 21.9603 24.1206 21.9617 24.1206 21.9632C24.1206 23.4468 24.1206 24.9305 24.1206 26.4156C24.1206 26.5538 24.1324 26.6905 24.1765 26.8229C24.2353 27.0023 24.35 27.1287 24.5308 27.1905C24.6514 27.2317 24.7764 27.2361 24.9029 27.2346C25.1572 27.2302 25.391 27.167 25.5969 27.0199H25.5984C25.616 27.0081 25.6322 26.9949 25.6498 26.9802L25.6748 26.9611V26.9596Z" fill="#009849"/>
<path fill-rule="evenodd" clip-rule="evenodd" d="M29.7346 21.9866L29.6714 21.9587C29.6479 21.9484 29.6229 21.9381 29.5979 21.9293C29.5626 21.916 29.5258 21.9043 29.4891 21.894C29.4435 21.8807 29.395 21.8705 29.3479 21.8631C29.0906 21.8205 28.8362 21.8263 28.5848 21.9072C28.3407 21.9851 28.1436 22.1292 27.9966 22.341C27.8334 22.5777 27.7599 22.8439 27.7378 23.1262C27.7275 23.2482 27.7275 23.3717 27.7275 23.4952V23.5879H27.6981C27.6952 23.5879 27.6908 23.5879 27.6878 23.5879C27.557 23.5879 27.4261 23.5879 27.2952 23.5879H27.2158V23.6143C27.2158 23.6143 27.2144 23.6276 27.2129 23.6379C27.2129 23.6717 27.2099 23.707 27.2085 23.7408L27.182 24.2437H27.3835C27.4878 24.2437 27.5908 24.2437 27.6952 24.2437C27.6981 24.2437 27.7025 24.2437 27.7055 24.2437H27.7305L27.7275 24.3613C27.7275 25.2788 27.7275 26.1949 27.7275 27.1124C27.7275 27.1654 27.7202 27.161 27.7775 27.161C28.0231 27.161 28.2701 27.161 28.5157 27.161C28.5745 27.161 28.5671 27.1654 28.5671 27.1095C28.5671 26.2081 28.5671 25.3068 28.5671 24.4069V24.2437H28.7495C28.9803 24.2437 29.2126 24.2437 29.4435 24.2437C29.4464 24.2437 29.4508 24.2437 29.4538 24.2437H29.4876V24.2069C29.4876 24.2069 29.4891 24.204 29.4891 24.2025C29.4891 24.1849 29.4891 24.1687 29.4905 24.151L29.4935 24.0966C29.4994 23.9437 29.5082 23.7908 29.5141 23.6364C29.5141 23.6261 29.5141 23.6173 29.5141 23.6099V23.5864H29.3479C29.1376 23.5864 28.9288 23.5864 28.7186 23.5864L28.5671 23.5894V23.5629C28.5671 23.5629 28.5657 23.5511 28.5671 23.5438C28.5701 23.4467 28.5671 23.3497 28.5701 23.2526C28.5745 23.11 28.5936 22.9688 28.6495 22.8365C28.7333 22.638 28.8818 22.5292 29.0994 22.5174C29.2141 22.5115 29.3259 22.5292 29.4361 22.5615C29.4847 22.5762 29.5317 22.5909 29.5817 22.6071C29.5846 22.5983 29.5861 22.5924 29.5876 22.588C29.6332 22.4042 29.6773 22.2204 29.7243 22.0381L29.7376 21.9881L29.7346 21.9866Z" fill="#008A85"/>
<path fill-rule="evenodd" clip-rule="evenodd" d="M33.6855 26.8185C33.6591 26.7405 33.6326 26.6626 33.6047 26.5847C33.5885 26.5376 33.5709 26.4906 33.5532 26.4391C33.5223 26.4567 33.4973 26.4714 33.4723 26.4832C33.3885 26.5258 33.3003 26.5582 33.2033 26.5538C33.1341 26.5508 33.0886 26.52 33.0739 26.4523C33.0592 26.3906 33.0518 26.3259 33.0518 26.2626C33.0503 25.6171 33.0518 24.9716 33.0518 24.3261C33.0518 24.085 33.0518 23.8424 33.0518 23.6012C33.0518 23.5997 33.0518 23.5983 33.0518 23.5968V23.5645L33.0195 23.5659C32.7871 23.5777 32.5563 23.5865 32.324 23.5968H32.3122C32.3019 23.5968 32.2916 23.5968 32.2813 23.5983C32.2769 23.5983 32.2725 23.5983 32.2681 23.5983H32.2313V23.7247C32.221 24.16 32.1931 24.5923 32.1284 25.0231C32.0887 25.2966 32.0328 25.5686 31.9431 25.8303C31.8814 26.0068 31.8064 26.1774 31.6858 26.3229C31.5505 26.4861 31.3829 26.5655 31.1697 26.5288C31.0947 26.5156 31.0271 26.4891 30.9712 26.4376C30.8844 26.3582 30.8506 26.2523 30.8286 26.1421C30.8036 26.0171 30.8006 25.8906 30.8036 25.7627C30.8183 25.2128 30.833 24.6643 30.8477 24.1144C30.8521 23.9438 30.8565 23.7718 30.8624 23.6012C30.8624 23.5953 30.8624 23.5895 30.8624 23.5836V23.563H30.8418C30.8374 23.563 30.833 23.563 30.8271 23.563C30.5859 23.5748 30.3448 23.5836 30.1037 23.5953H30.0698C30.0684 23.5953 30.0654 23.5953 30.064 23.5953C30.061 23.5953 30.0581 23.5953 30.0551 23.5953H30.0184V23.6233C30.0184 23.6292 30.0184 23.635 30.0184 23.6439C29.9993 24.3967 29.9801 25.1481 29.9625 25.9009C29.9566 26.1141 29.9713 26.3244 30.0331 26.5288C30.0845 26.6964 30.1625 26.8479 30.2889 26.9699C30.458 27.1331 30.6668 27.2052 30.8962 27.2228C31.0359 27.2331 31.1756 27.2272 31.3153 27.2008C31.4976 27.1655 31.6637 27.0934 31.8093 26.9758C32.0064 26.8155 32.1328 26.6052 32.221 26.37C32.2416 26.3141 32.2607 26.2582 32.2769 26.2009L32.3225 26.048C32.3313 26.0186 32.3401 25.9891 32.349 25.9597L32.3916 25.823V25.9686C32.3916 25.9686 32.3916 25.973 32.3916 25.9759C32.3916 25.9906 32.3916 26.0053 32.3916 26.0215V26.0347C32.3916 26.2112 32.3916 26.3876 32.3916 26.5626C32.3916 26.6788 32.4092 26.7905 32.4504 26.8993C32.5181 27.0758 32.646 27.1802 32.8327 27.2125C32.9445 27.2331 33.0562 27.2272 33.1694 27.2125C33.3385 27.1905 33.4929 27.1316 33.6311 27.039C33.6532 27.0243 33.6753 27.0081 33.6973 26.992L33.7003 26.989C33.7017 26.9876 33.7047 26.9861 33.7061 26.9846L33.7429 26.9552L33.6885 26.8126L33.6855 26.8185Z" fill="#007F95"/>
<path fill-rule="evenodd" clip-rule="evenodd" d="M38.1056 26.9538L38.085 26.8979C38.035 26.7508 37.9836 26.6038 37.9321 26.4568C37.9321 26.4553 37.9321 26.4538 37.9306 26.4524L37.9218 26.4288L37.8821 26.4553L37.8248 26.4876C37.741 26.5303 37.6542 26.5597 37.5586 26.5553C37.4881 26.5523 37.4351 26.5185 37.416 26.4479C37.4042 26.4053 37.3969 26.3597 37.3969 26.3141C37.3969 26.2171 37.4028 26.12 37.4057 26.023C37.4189 25.648 37.4307 25.2731 37.4454 24.8981C37.4528 24.7055 37.4498 24.5144 37.4072 24.3262C37.3778 24.1909 37.3293 24.0615 37.2528 23.9453C37.1058 23.7189 36.894 23.5895 36.6323 23.5366C36.4441 23.4983 36.2559 23.4969 36.0662 23.5366C35.8883 23.5733 35.7309 23.6483 35.5912 23.7645C35.4148 23.9115 35.2913 24.0968 35.2045 24.3056C35.1604 24.41 35.1295 24.5202 35.0942 24.6276L35.0281 24.8496L35.0354 24.6835C35.0354 24.6835 35.0354 24.6761 35.0354 24.6732C35.0398 24.5438 35.0457 24.4144 35.0516 24.2865C35.0545 24.2173 35.0575 24.1482 35.0604 24.0806V24.0762C35.0663 23.9541 35.0707 23.8336 35.0766 23.7115L35.084 23.566L34.8693 23.5763C34.7208 23.5836 34.5723 23.591 34.4223 23.5968H34.4105C34.3943 23.5968 34.3782 23.5983 34.3635 23.5998C34.3576 23.5998 34.3517 23.5998 34.3473 23.5998H34.3164V25.379C34.3164 25.9598 34.3164 26.5406 34.3164 27.1199C34.3164 27.1508 34.3238 27.1581 34.3546 27.1581C34.6002 27.1581 34.8472 27.1581 35.0928 27.1581C35.1251 27.1581 35.1354 27.1508 35.1369 27.1155C35.1413 26.7464 35.1619 26.3788 35.2045 26.0127C35.2428 25.676 35.2986 25.3422 35.4016 25.0187C35.4618 24.8305 35.5354 24.6467 35.653 24.4864C35.7853 24.3056 35.9515 24.1909 36.1882 24.2144C36.3529 24.2306 36.4691 24.3115 36.5308 24.4658C36.5808 24.5908 36.597 24.7232 36.5955 24.8555C36.5926 25.0878 36.5838 25.3187 36.5749 25.551C36.5661 25.8054 36.5558 26.0612 36.5455 26.3156C36.5396 26.4685 36.5352 26.6215 36.5749 26.7729C36.6073 26.8979 36.6646 27.0067 36.7661 27.0905C36.8808 27.1846 37.0175 27.2199 37.1616 27.2287C37.3175 27.2375 37.4734 27.2287 37.6263 27.1934C37.7689 27.1611 37.9012 27.1037 38.0189 27.0199C38.0424 27.0038 38.0645 26.9861 38.088 26.967L38.1056 26.9523V26.9538Z" fill="#0E74A3"/>
<path fill-rule="evenodd" clip-rule="evenodd" d="M40.8346 24.3864C40.8184 24.6173 40.8067 24.8496 40.7817 25.079C40.7493 25.376 40.6905 25.6671 40.5788 25.945C40.5141 26.1053 40.4332 26.2538 40.3097 26.3773C40.12 26.5685 39.8539 26.6067 39.6259 26.5097C39.5142 26.4612 39.4421 26.3729 39.3921 26.2641C39.3377 26.148 39.3157 26.023 39.3039 25.8965C39.2951 25.8098 39.2936 25.723 39.2892 25.6363C39.2936 25.3922 39.3245 25.151 39.4069 24.9202C39.4907 24.6834 39.6157 24.4732 39.8215 24.3203C39.9994 24.1864 40.2009 24.1467 40.4185 24.1659C40.5111 24.1747 40.5993 24.1923 40.6846 24.2247C40.7199 24.2379 40.7537 24.2526 40.7876 24.2703L40.8434 24.2997L40.8346 24.385V24.3864ZM42.283 26.9714V26.967L42.2462 26.864C42.2036 26.742 42.1609 26.6185 42.1197 26.495V26.492L42.108 26.4626L42.0933 26.47C42.0933 26.47 42.0874 26.4729 42.0845 26.4744C41.9977 26.5214 41.9051 26.5553 41.8051 26.5553C41.7154 26.5553 41.6639 26.5111 41.6536 26.4229C41.6463 26.37 41.6433 26.3156 41.6433 26.2612C41.6433 24.8202 41.6433 23.3777 41.6433 21.9367V21.8809L41.5845 21.8838C41.5845 21.8838 41.5772 21.8838 41.5728 21.8838C41.5228 21.8867 41.4713 21.8897 41.4213 21.8926H41.3875V21.8941C41.2213 21.9029 41.0566 21.9117 40.8905 21.9206C40.8905 21.9206 40.889 21.9206 40.8875 21.9206C40.8802 21.9206 40.8728 21.9206 40.8684 21.9206H40.842V23.5468L40.7817 23.538C40.7773 23.538 40.7729 23.538 40.7684 23.5365H40.7655C40.7582 23.5351 40.7508 23.5336 40.7434 23.5321L40.6714 23.5233C40.4876 23.5027 40.3023 23.4998 40.1185 23.5233C39.8906 23.5512 39.6745 23.6159 39.473 23.7262C39.0937 23.9321 38.8305 24.2438 38.657 24.6334C38.5437 24.8864 38.482 25.1525 38.4614 25.4289C38.4379 25.7465 38.4555 26.0612 38.5437 26.37C38.5908 26.5332 38.6628 26.6861 38.7672 26.8214C38.9687 27.0831 39.2436 27.2052 39.5671 27.2287C39.7053 27.239 39.8421 27.2331 39.9788 27.2081C40.1406 27.1787 40.292 27.1228 40.4288 27.0331C40.617 26.9096 40.7508 26.7435 40.8493 26.5494L40.9522 26.2994L41.0361 26.0436V26.3626L41.0331 26.3656C41.0331 26.4597 41.0331 26.5538 41.0346 26.6479C41.0375 26.7273 41.0464 26.8067 41.0655 26.8832C41.114 27.0684 41.2331 27.1831 41.4242 27.2199C41.5316 27.2405 41.6389 27.2346 41.7477 27.2199C41.8815 27.2022 42.0036 27.1596 42.1153 27.0949C42.1433 27.0787 42.1697 27.0611 42.1962 27.0434C42.2153 27.0302 42.2344 27.0155 42.2535 27.0008L42.2888 26.9729L42.283 26.9714Z" fill="#1866AC"/>
<path fill-rule="evenodd" clip-rule="evenodd" d="M7.93735 27.0479C7.95793 27.0347 7.97852 27.02 7.9991 27.0053L8.05351 26.9685L7.86824 26.4363L7.78884 26.4848C7.69914 26.5333 7.60651 26.5657 7.50211 26.5627C7.42565 26.5598 7.38301 26.5289 7.35948 26.4568C7.33448 26.3789 7.33889 26.298 7.34183 26.2172C7.36095 25.7599 7.38007 25.3026 7.39771 24.8453C7.40653 24.6277 7.3933 24.413 7.32713 24.2027C7.2742 24.0336 7.19038 23.8822 7.05805 23.7616C6.88307 23.5999 6.66839 23.5322 6.43754 23.5116C6.29491 23.4984 6.15228 23.5043 6.01112 23.5322C5.81115 23.5719 5.63911 23.6616 5.49648 23.8057C5.3318 23.9733 5.23034 24.1777 5.15241 24.3968C5.123 24.4792 5.10095 24.563 5.07448 24.6468C5.07154 24.6556 5.0436 24.7674 5.03625 24.7747C5.03037 24.7659 5.03625 24.6512 5.03478 24.6424C5.03184 24.61 5.03184 24.5762 5.03037 24.5424C5.02301 24.3615 4.99949 24.1836 4.93479 24.013C4.82892 23.7337 4.62454 23.5749 4.3334 23.5249C4.16577 23.4969 3.99667 23.4969 3.82905 23.5337C3.65995 23.569 3.50703 23.641 3.3747 23.7528C3.1909 23.9057 3.06591 24.1013 2.97916 24.3204C2.94093 24.4174 2.91152 24.5189 2.88064 24.6203L2.80859 24.8541L2.82624 24.5086C2.83065 24.4174 2.83359 24.3262 2.838 24.2336C2.84682 24.0248 2.85564 23.8175 2.86594 23.6087C2.86594 23.5954 2.86594 23.5837 2.86594 23.5675C2.8527 23.5675 2.84388 23.5675 2.83506 23.5675C2.60274 23.5778 2.37188 23.5896 2.13956 23.5999C2.13368 23.5999 2.12927 23.5999 2.12633 23.5999H2.09839V23.6425C2.09839 24.8071 2.09839 25.9687 2.09839 27.1318V27.1715H2.87182C2.90417 27.1715 2.92083 27.1558 2.92181 27.1244C2.92916 26.6612 2.9571 26.1995 3.02474 25.7408C3.06591 25.4658 3.12032 25.1952 3.21148 24.932C3.27324 24.7541 3.3497 24.5821 3.47174 24.4365C3.57761 24.3101 3.70701 24.2248 3.87904 24.216C4.09519 24.2057 4.24223 24.3042 4.31281 24.5071C4.35545 24.6291 4.37016 24.7541 4.37016 24.882C4.37016 25.0982 4.36427 25.3129 4.35839 25.529C4.3481 25.929 4.33634 26.3275 4.32457 26.7274L4.31134 27.1744H4.41574C4.58925 27.1729 4.76275 27.1729 4.93626 27.1744H5.12006V27.1538C5.12006 27.1465 5.12006 27.1376 5.12006 27.1244C5.12006 27.1082 5.12006 27.0935 5.12006 27.0774L5.13035 26.7509C5.148 26.3363 5.18476 25.9231 5.25681 25.5143C5.29504 25.2967 5.34503 25.082 5.42149 24.8732C5.47884 24.7144 5.55089 24.5615 5.66117 24.4306C5.76557 24.3071 5.89349 24.2263 6.06112 24.2189C6.29491 24.2086 6.44489 24.3145 6.50812 24.5394C6.54782 24.6821 6.5537 24.8291 6.54782 24.9762C6.539 25.2202 6.52723 25.4643 6.51694 25.7084C6.50665 25.9275 6.49783 26.1481 6.48753 26.3672C6.48018 26.5098 6.48165 26.6524 6.51694 26.7921C6.58017 27.0377 6.75809 27.1979 7.00658 27.2332C7.1698 27.2567 7.33301 27.2494 7.49476 27.2215C7.65503 27.1935 7.80354 27.1406 7.93882 27.0538L7.93735 27.0479Z" fill="#43AC32"/>
<path fill-rule="evenodd" clip-rule="evenodd" d="M12.2957 26.9978L12.3163 26.9816L12.2354 26.7537C12.2178 26.7037 12.2016 26.6537 12.1839 26.6038C12.1678 26.5567 12.1501 26.5082 12.131 26.4567C12.1148 26.4655 12.1045 26.4714 12.0942 26.4773C11.9972 26.5317 11.8957 26.5758 11.781 26.5714C11.7105 26.5685 11.6634 26.5376 11.6487 26.4685C11.634 26.4038 11.6267 26.3376 11.6267 26.2714C11.6267 25.3921 11.6267 24.5143 11.6267 23.635C11.6267 23.6291 11.6267 23.6247 11.6267 23.6188V23.61C11.6267 23.61 11.6267 23.6041 11.6267 23.6027C11.6267 23.5968 11.6267 23.5924 11.6267 23.5894V23.5703L10.7974 23.6056V23.8894C10.7974 23.9335 10.7944 23.9761 10.7929 24.0188C10.7797 24.3585 10.7518 24.6952 10.7018 25.0319C10.6606 25.3069 10.6062 25.5804 10.515 25.8436C10.4533 26.0229 10.3768 26.195 10.2548 26.342C10.1268 26.4949 9.96952 26.5773 9.76366 26.5508C9.60927 26.5317 9.50046 26.4552 9.44017 26.3111C9.38724 26.1832 9.36959 26.0479 9.37106 25.9127C9.37694 25.5068 9.38724 25.101 9.39606 24.6966C9.40488 24.3673 9.4137 24.0379 9.424 23.7071L9.42841 23.5688L9.26813 23.5777C9.15491 23.5821 9.04169 23.588 8.92847 23.5924L8.57705 23.6056L8.56969 23.8982C8.56969 23.9203 8.5697 23.9423 8.56822 23.9644C8.55793 24.3437 8.54764 24.7216 8.53882 25.101C8.53146 25.4216 8.52264 25.7421 8.5197 26.0626C8.51823 26.2656 8.55058 26.4626 8.62557 26.6523C8.74908 26.964 8.97406 27.1596 9.30637 27.2243C9.53281 27.2684 9.75778 27.2581 9.97981 27.1978C10.1651 27.1478 10.3254 27.0537 10.4606 26.9169C10.6033 26.7728 10.7047 26.6038 10.7768 26.4155C10.8312 26.2729 10.8694 26.1259 10.915 25.9803C10.9209 25.9612 10.9459 25.8862 10.9517 25.895C10.9562 25.9009 10.9591 25.9774 10.9591 25.9891C10.9591 26.1862 10.9591 26.3832 10.9591 26.5788C10.9591 26.6964 10.9767 26.8096 11.0194 26.9199C11.087 27.0949 11.2135 27.1993 11.3987 27.2331C11.512 27.2537 11.6252 27.2493 11.7384 27.2331C11.9266 27.2096 12.0942 27.139 12.2457 27.0287C12.2604 27.0184 12.2751 27.0066 12.2898 26.9949C12.2898 26.9949 12.2913 26.9934 12.2927 26.9919L12.2957 26.9978Z" fill="#38AA34"/>
<path fill-rule="evenodd" clip-rule="evenodd" d="M19.3727 26.9978L19.3933 26.9816L19.3124 26.7537C19.2948 26.7037 19.2786 26.6537 19.261 26.6038C19.2448 26.5567 19.2271 26.5082 19.208 26.4567C19.1919 26.4655 19.1816 26.4714 19.1713 26.4773C19.0742 26.5317 18.9728 26.5758 18.8581 26.5714C18.7875 26.5685 18.7404 26.5376 18.7257 26.4685C18.711 26.4038 18.7037 26.3376 18.7037 26.2714C18.7037 25.3921 18.7037 24.5143 18.7037 23.635C18.7037 23.6291 18.7037 23.6247 18.7037 23.6188V23.61C18.7037 23.61 18.7037 23.6041 18.7037 23.6027C18.7037 23.5968 18.7037 23.5924 18.7037 23.5894V23.5703L17.8744 23.6056V23.8894C17.8744 23.9335 17.8714 23.9761 17.87 24.0188C17.8567 24.3585 17.8288 24.6952 17.7788 25.0319C17.7376 25.3069 17.6832 25.5804 17.5921 25.8436C17.5303 26.0229 17.4538 26.195 17.3318 26.342C17.2039 26.4949 17.0465 26.5773 16.8407 26.5508C16.6863 26.5317 16.5775 26.4552 16.5172 26.3111C16.4643 26.1832 16.4466 26.0479 16.4481 25.9127C16.454 25.5068 16.4643 25.101 16.4731 24.6966C16.4819 24.3673 16.4907 24.0379 16.501 23.7071L16.5054 23.5688L16.3452 23.5777C16.2319 23.5821 16.1187 23.588 16.0055 23.5924L15.6541 23.6056L15.6467 23.8982C15.6467 23.9203 15.6467 23.9423 15.6453 23.9644C15.635 24.3437 15.6247 24.7216 15.6158 25.101C15.6085 25.4216 15.5997 25.7421 15.5967 26.0626C15.5953 26.2656 15.6276 26.4626 15.7026 26.6523C15.8261 26.964 16.0511 27.1596 16.3834 27.2243C16.6098 27.2684 16.8348 27.2581 17.0568 27.1978C17.2421 27.1478 17.4024 27.0537 17.5377 26.9169C17.6803 26.7728 17.7817 26.6038 17.8538 26.4155C17.9082 26.2729 17.9464 26.1259 17.992 25.9803C17.9979 25.9612 18.0229 25.8862 18.0288 25.895C18.0332 25.9009 18.0361 25.9774 18.0361 25.9891C18.0361 26.1862 18.0361 26.3832 18.0361 26.5788C18.0361 26.6964 18.0538 26.8096 18.0964 26.9199C18.164 27.0949 18.2905 27.1993 18.4758 27.2331C18.589 27.2537 18.7022 27.2493 18.8154 27.2331C19.0036 27.2096 19.1713 27.139 19.3227 27.0287C19.3374 27.0184 19.3521 27.0066 19.3668 26.9949C19.3668 26.9949 19.3683 26.9934 19.3698 26.9919L19.3727 26.9978Z" fill="#02A34F"/>
<path fill-rule="evenodd" clip-rule="evenodd" d="M15.0541 26.989C15.0541 26.989 15.0673 26.9802 15.0732 26.9758L15.1556 26.9199L15.1482 26.8979C15.1482 26.8979 15.1482 26.8935 15.1467 26.892C15.1438 26.8846 15.1409 26.8773 15.1379 26.8699L15.1188 26.8155C15.1026 26.77 15.0879 26.7258 15.0732 26.6803C15.0379 26.5788 15.0026 26.4773 14.9644 26.37C14.9394 26.3832 14.9188 26.3935 14.8982 26.4038C14.6895 26.5112 14.4704 26.5744 14.2336 26.5567C14.0719 26.5435 13.969 26.4671 13.9175 26.3141C13.8793 26.198 13.8749 26.0774 13.8749 25.9583C13.8749 25.4789 13.8749 24.9996 13.8749 24.5202V24.2497H14.0998C14.3674 24.2497 14.635 24.2497 14.9027 24.2497C14.9071 24.2497 14.9115 24.2497 14.9144 24.2497H14.9424V24.2232C14.9424 24.2232 14.9438 24.2159 14.9438 24.21C14.9482 24.0527 14.9527 23.8939 14.9585 23.7365V23.7321C14.9585 23.7027 14.96 23.6733 14.9615 23.6439C14.9615 23.6351 14.9615 23.6292 14.9615 23.6233V23.5939H14.9424C14.935 23.5939 14.9262 23.5939 14.913 23.5939C14.5953 23.5939 14.2763 23.5939 13.9587 23.5939H13.8734V23.5762C13.8734 23.5762 13.8734 23.5601 13.8734 23.5454V23.4586C13.8734 23.2572 13.8734 23.0572 13.8734 22.8558V22.7808L13.741 22.7896C13.6455 22.794 13.5484 22.7984 13.4528 22.8028C13.3823 22.8058 13.3102 22.8102 13.2396 22.8146L13.1632 22.8175L13.1588 22.8999C13.1558 22.9322 13.1514 22.966 13.1485 22.9984C13.1426 23.0645 13.1352 23.1292 13.1294 23.1954L13.0941 23.5939H12.825C12.8 23.5924 12.775 23.5924 12.75 23.5924H12.7412C12.6809 23.5924 12.6206 23.5924 12.5603 23.5924C12.5559 23.5924 12.553 23.5924 12.55 23.5924H12.5221L12.5015 24.0571C12.4986 24.11 12.4956 24.1644 12.4927 24.2173C12.4927 24.2232 12.4927 24.2262 12.4927 24.232V24.2497H12.8603C12.9044 24.2497 12.9485 24.2497 12.9926 24.2497C13 24.2497 13.0073 24.2497 13.0117 24.2497H13.0353V24.2791C13.0353 24.2791 13.0353 24.282 13.0353 24.2835V24.2938C13.0353 24.4467 13.0353 24.6011 13.0353 24.754C13.0353 25.2128 13.0353 25.673 13.0382 26.1318C13.0397 26.323 13.0647 26.5126 13.1308 26.6935C13.1882 26.8523 13.2779 26.9861 13.4205 27.0817C13.5734 27.1861 13.7469 27.2287 13.9293 27.239C14.1586 27.2522 14.3851 27.2405 14.6101 27.1831C14.7703 27.142 14.9174 27.0773 15.0541 26.989Z" fill="#21A73E"/>
<path fill-rule="evenodd" clip-rule="evenodd" d="M22.134 24.3322C22.1193 24.5469 22.112 24.763 22.0899 24.9777C22.0708 25.1556 22.0429 25.3335 22.0076 25.5085C21.9547 25.7688 21.8753 26.0202 21.7238 26.2422C21.6356 26.3716 21.5282 26.4804 21.3768 26.5304C21.1768 26.5951 20.9842 26.5834 20.8151 26.4437C20.7298 26.3731 20.6842 26.2746 20.6519 26.1702C20.6004 26.0011 20.5916 25.8261 20.5901 25.7041C20.5901 25.3967 20.6225 25.1482 20.7092 24.9086C20.7724 24.7336 20.8621 24.5733 20.993 24.4366C21.1886 24.2307 21.4268 24.1454 21.7076 24.169C21.79 24.1763 21.8708 24.191 21.9473 24.216C21.9885 24.2292 22.0282 24.2454 22.0664 24.266C22.0811 24.2734 22.0958 24.2807 22.109 24.2895C22.109 24.2895 22.1105 24.2895 22.112 24.291L22.1326 24.3042V24.3189C22.1326 24.3189 22.1326 24.3263 22.1326 24.3307L22.134 24.3322ZM23.5383 27.0024L23.5721 26.9774L23.5662 26.9583C23.5662 26.9583 23.5647 26.9524 23.5633 26.948C23.5294 26.8524 23.4986 26.7569 23.4648 26.6613C23.4427 26.5966 23.4206 26.5334 23.3956 26.4643C23.3692 26.4775 23.3486 26.4878 23.328 26.4966C23.2471 26.5319 23.1648 26.5642 23.0736 26.5569C22.9986 26.551 22.9531 26.5113 22.9428 26.4363C22.9354 26.3804 22.931 26.3231 22.931 26.2657C22.931 25.4732 22.931 24.6792 22.931 23.8866C22.931 23.8793 22.931 23.8734 22.9295 23.8675V23.8425L22.8957 23.8249C22.8648 23.8072 22.8325 23.7911 22.8001 23.7749H22.7987V23.7734C22.7575 23.7528 22.7163 23.7337 22.6737 23.7146C22.6413 23.6999 22.609 23.6867 22.5752 23.6749C22.3737 23.597 22.1634 23.5455 21.9429 23.5235C21.6694 23.497 21.4003 23.5073 21.1342 23.5823C20.7813 23.6823 20.4872 23.8719 20.2519 24.1513C19.9696 24.488 19.8211 24.8821 19.7652 25.3129C19.727 25.6158 19.7358 25.9173 19.7976 26.2172C19.8402 26.4231 19.9123 26.6157 20.0343 26.7892C20.1681 26.9789 20.346 27.1083 20.5666 27.1759C20.8342 27.2583 21.1048 27.2583 21.3753 27.1892C21.6988 27.1083 21.9341 26.9113 22.1017 26.6275C22.1649 26.5187 22.2134 26.4054 22.2531 26.2863L22.2737 26.2231C22.2767 26.2143 22.2796 26.2055 22.2811 26.1966C22.2826 26.1893 22.2855 26.1819 22.2884 26.1761L22.3296 26.0496V26.2657C22.3296 26.379 22.3296 26.4937 22.3296 26.6069C22.3296 26.7039 22.3384 26.801 22.3664 26.8936C22.4134 27.0539 22.509 27.1671 22.6737 27.2127C22.8075 27.2494 22.9428 27.2421 23.0766 27.2186C23.2074 27.195 23.328 27.148 23.4383 27.0774C23.4559 27.0656 23.4736 27.0554 23.4897 27.0421C23.5074 27.0289 23.5236 27.0171 23.5412 27.0024H23.5383Z" fill="#00995F"/>
<path fill-rule="evenodd" clip-rule="evenodd" d="M25.6748 26.9596L25.641 26.867C25.6189 26.8052 25.5969 26.742 25.5748 26.6803C25.5469 26.6023 25.5204 26.5259 25.491 26.4435C25.4469 26.4656 25.4072 26.4876 25.366 26.5082C25.2778 26.5509 25.1852 26.5773 25.0852 26.5597C25.0278 26.5509 24.9837 26.52 24.972 26.4626C24.9587 26.4009 24.9514 26.3362 24.9514 26.2729C24.9499 25.8024 24.9514 25.3319 24.9514 24.8614V21.9485V21.9264C24.9514 21.9162 24.9514 21.9073 24.9514 21.9015V21.8794L24.8558 21.8853C24.6338 21.897 24.4103 21.9088 24.1882 21.9191L24.1206 21.922V21.9603C24.1206 21.9603 24.1206 21.9617 24.1206 21.9632C24.1206 23.4468 24.1206 24.9305 24.1206 26.4156C24.1206 26.5538 24.1324 26.6905 24.1765 26.8229C24.2353 27.0023 24.35 27.1287 24.5308 27.1905C24.6514 27.2317 24.7764 27.2361 24.9029 27.2346C25.1572 27.2302 25.391 27.167 25.5969 27.0199H25.5984C25.616 27.0081 25.6322 26.9949 25.6498 26.9802L25.6748 26.9611V26.9596Z" fill="#009372"/>
<path fill-rule="evenodd" clip-rule="evenodd" d="M29.7346 21.9866L29.6714 21.9587C29.6479 21.9484 29.6229 21.9381 29.5979 21.9293C29.5626 21.916 29.5258 21.9043 29.4891 21.894C29.4435 21.8807 29.395 21.8705 29.3479 21.8631C29.0906 21.8205 28.8362 21.8263 28.5848 21.9072C28.3407 21.9851 28.1436 22.1292 27.9966 22.341C27.8334 22.5777 27.7599 22.8439 27.7378 23.1262C27.7275 23.2482 27.7275 23.3717 27.7275 23.4952V23.5879H27.6981C27.6952 23.5879 27.6908 23.5879 27.6878 23.5879C27.557 23.5879 27.4261 23.5879 27.2952 23.5879H27.2158V23.6143C27.2158 23.6143 27.2144 23.6276 27.2129 23.6379C27.2129 23.6717 27.2099 23.707 27.2085 23.7408L27.182 24.2437H27.3835C27.4878 24.2437 27.5908 24.2437 27.6952 24.2437C27.6981 24.2437 27.7025 24.2437 27.7055 24.2437H27.7305L27.7275 24.3613C27.7275 25.2788 27.7275 26.1949 27.7275 27.1124C27.7275 27.1654 27.7202 27.161 27.7775 27.161C28.0231 27.161 28.2701 27.161 28.5157 27.161C28.5745 27.161 28.5671 27.1654 28.5671 27.1095C28.5671 26.2081 28.5671 25.3068 28.5671 24.4069V24.2437H28.7495C28.9803 24.2437 29.2126 24.2437 29.4435 24.2437C29.4464 24.2437 29.4508 24.2437 29.4538 24.2437H29.4876V24.2069C29.4876 24.2069 29.4891 24.204 29.4891 24.2025C29.4891 24.1849 29.4891 24.1687 29.4905 24.151L29.4935 24.0966C29.4994 23.9437 29.5082 23.7908 29.5141 23.6364C29.5141 23.6261 29.5141 23.6173 29.5141 23.6099V23.5864H29.3479C29.1376 23.5864 28.9288 23.5864 28.7186 23.5864L28.5671 23.5894V23.5629C28.5671 23.5629 28.5657 23.5511 28.5671 23.5438C28.5701 23.4467 28.5671 23.3497 28.5701 23.2526C28.5745 23.11 28.5936 22.9688 28.6495 22.8365C28.7333 22.638 28.8818 22.5292 29.0994 22.5174C29.2141 22.5115 29.3259 22.5292 29.4361 22.5615C29.4847 22.5762 29.5317 22.5909 29.5817 22.6071C29.5846 22.5983 29.5861 22.5924 29.5876 22.588C29.6332 22.4042 29.6773 22.2204 29.7243 22.0381L29.7376 21.9881L29.7346 21.9866Z" fill="#008A85"/>
<path fill-rule="evenodd" clip-rule="evenodd" d="M33.6855 26.8185C33.6591 26.7405 33.6326 26.6626 33.6047 26.5847C33.5885 26.5376 33.5709 26.4906 33.5532 26.4391C33.5223 26.4567 33.4973 26.4714 33.4723 26.4832C33.3885 26.5258 33.3003 26.5582 33.2033 26.5538C33.1341 26.5508 33.0886 26.52 33.0739 26.4523C33.0592 26.3906 33.0518 26.3259 33.0518 26.2626C33.0503 25.6171 33.0518 24.9716 33.0518 24.3261C33.0518 24.085 33.0518 23.8424 33.0518 23.6012C33.0518 23.5997 33.0518 23.5983 33.0518 23.5968V23.5645L33.0195 23.5659C32.7871 23.5777 32.5563 23.5865 32.324 23.5968H32.3122C32.3019 23.5968 32.2916 23.5968 32.2813 23.5983C32.2769 23.5983 32.2725 23.5983 32.2681 23.5983H32.2313V23.7247C32.221 24.16 32.1931 24.5923 32.1284 25.0231C32.0887 25.2966 32.0328 25.5686 31.9431 25.8303C31.8814 26.0068 31.8064 26.1774 31.6858 26.3229C31.5505 26.4861 31.3829 26.5655 31.1697 26.5288C31.0947 26.5156 31.0271 26.4891 30.9712 26.4376C30.8844 26.3582 30.8506 26.2523 30.8286 26.1421C30.8036 26.0171 30.8006 25.8906 30.8036 25.7627C30.8183 25.2128 30.833 24.6643 30.8477 24.1144C30.8521 23.9438 30.8565 23.7718 30.8624 23.6012C30.8624 23.5953 30.8624 23.5895 30.8624 23.5836V23.563H30.8418C30.8374 23.563 30.833 23.563 30.8271 23.563C30.5859 23.5748 30.3448 23.5836 30.1037 23.5953H30.0698C30.0684 23.5953 30.0654 23.5953 30.064 23.5953C30.061 23.5953 30.0581 23.5953 30.0551 23.5953H30.0184V23.6233C30.0184 23.6292 30.0184 23.635 30.0184 23.6439C29.9993 24.3967 29.9801 25.1481 29.9625 25.9009C29.9566 26.1141 29.9713 26.3244 30.0331 26.5288C30.0845 26.6964 30.1625 26.8479 30.2889 26.9699C30.458 27.1331 30.6668 27.2052 30.8962 27.2228C31.0359 27.2331 31.1756 27.2272 31.3153 27.2008C31.4976 27.1655 31.6637 27.0934 31.8093 26.9758C32.0064 26.8155 32.1328 26.6052 32.221 26.37C32.2416 26.3141 32.2607 26.2582 32.2769 26.2009L32.3225 26.048C32.3313 26.0186 32.3401 25.9891 32.349 25.9597L32.3916 25.823V25.9686C32.3916 25.9686 32.3916 25.973 32.3916 25.9759C32.3916 25.9906 32.3916 26.0053 32.3916 26.0215V26.0347C32.3916 26.2112 32.3916 26.3876 32.3916 26.5626C32.3916 26.6788 32.4092 26.7905 32.4504 26.8993C32.5181 27.0758 32.646 27.1802 32.8327 27.2125C32.9445 27.2331 33.0562 27.2272 33.1694 27.2125C33.3385 27.1905 33.4929 27.1316 33.6311 27.039C33.6532 27.0243 33.6753 27.0081 33.6973 26.992L33.7003 26.989C33.7017 26.9876 33.7047 26.9861 33.7061 26.9846L33.7429 26.9552L33.6885 26.8126L33.6855 26.8185Z" fill="#007F95"/>
<path fill-rule="evenodd" clip-rule="evenodd" d="M38.1056 26.9538L38.085 26.8979C38.035 26.7508 37.9836 26.6038 37.9321 26.4568C37.9321 26.4553 37.9321 26.4538 37.9306 26.4524L37.9218 26.4288L37.8821 26.4553L37.8248 26.4876C37.741 26.5303 37.6542 26.5597 37.5586 26.5553C37.4881 26.5523 37.4351 26.5185 37.416 26.4479C37.4042 26.4053 37.3969 26.3597 37.3969 26.3141C37.3969 26.2171 37.4028 26.12 37.4057 26.023C37.4189 25.648 37.4307 25.2731 37.4454 24.8981C37.4528 24.7055 37.4498 24.5144 37.4072 24.3262C37.3778 24.1909 37.3293 24.0615 37.2528 23.9453C37.1058 23.7189 36.894 23.5895 36.6323 23.5366C36.4441 23.4983 36.2559 23.4969 36.0662 23.5366C35.8883 23.5733 35.7309 23.6483 35.5912 23.7645C35.4148 23.9115 35.2913 24.0968 35.2045 24.3056C35.1604 24.41 35.1295 24.5202 35.0942 24.6276L35.0281 24.8496L35.0354 24.6835C35.0354 24.6835 35.0354 24.6761 35.0354 24.6732C35.0398 24.5438 35.0457 24.4144 35.0516 24.2865C35.0545 24.2173 35.0575 24.1482 35.0604 24.0806V24.0762C35.0663 23.9541 35.0707 23.8336 35.0766 23.7115L35.084 23.566L34.8693 23.5763C34.7208 23.5836 34.5723 23.591 34.4223 23.5968H34.4105C34.3943 23.5968 34.3782 23.5983 34.3635 23.5998C34.3576 23.5998 34.3517 23.5998 34.3473 23.5998H34.3164V25.379C34.3164 25.9598 34.3164 26.5406 34.3164 27.1199C34.3164 27.1508 34.3238 27.1581 34.3546 27.1581C34.6002 27.1581 34.8472 27.1581 35.0928 27.1581C35.1251 27.1581 35.1354 27.1508 35.1369 27.1155C35.1413 26.7464 35.1619 26.3788 35.2045 26.0127C35.2428 25.676 35.2986 25.3422 35.4016 25.0187C35.4618 24.8305 35.5354 24.6467 35.653 24.4864C35.7853 24.3056 35.9515 24.1909 36.1882 24.2144C36.3529 24.2306 36.4691 24.3115 36.5308 24.4658C36.5808 24.5908 36.597 24.7232 36.5955 24.8555C36.5926 25.0878 36.5838 25.3187 36.5749 25.551C36.5661 25.8054 36.5558 26.0612 36.5455 26.3156C36.5396 26.4685 36.5352 26.6215 36.5749 26.7729C36.6073 26.8979 36.6646 27.0067 36.7661 27.0905C36.8808 27.1846 37.0175 27.2199 37.1616 27.2287C37.3175 27.2375 37.4734 27.2287 37.6263 27.1934C37.7689 27.1611 37.9012 27.1037 38.0189 27.0199C38.0424 27.0038 38.0645 26.9861 38.088 26.967L38.1056 26.9523V26.9538Z" fill="#0E74A3"/>
<path fill-rule="evenodd" clip-rule="evenodd" d="M40.8346 24.3864C40.8184 24.6173 40.8067 24.8496 40.7817 25.079C40.7493 25.376 40.6905 25.6671 40.5788 25.945C40.5141 26.1053 40.4332 26.2538 40.3097 26.3773C40.12 26.5685 39.8539 26.6067 39.6259 26.5097C39.5142 26.4612 39.4421 26.3729 39.3921 26.2641C39.3377 26.148 39.3157 26.023 39.3039 25.8965C39.2951 25.8098 39.2936 25.723 39.2892 25.6363C39.2936 25.3922 39.3245 25.151 39.4069 24.9202C39.4907 24.6834 39.6157 24.4732 39.8215 24.3203C39.9994 24.1864 40.2009 24.1467 40.4185 24.1659C40.5111 24.1747 40.5993 24.1923 40.6846 24.2247C40.7199 24.2379 40.7537 24.2526 40.7876 24.2703L40.8434 24.2997L40.8346 24.385V24.3864ZM42.283 26.9714V26.967L42.2462 26.864C42.2036 26.742 42.1609 26.6185 42.1197 26.495V26.492L42.108 26.4626L42.0933 26.47C42.0933 26.47 42.0874 26.4729 42.0845 26.4744C41.9977 26.5214 41.9051 26.5553 41.8051 26.5553C41.7154 26.5553 41.6639 26.5111 41.6536 26.4229C41.6463 26.37 41.6433 26.3156 41.6433 26.2612C41.6433 24.8202 41.6433 23.3777 41.6433 21.9367V21.8809L41.5845 21.8838C41.5845 21.8838 41.5772 21.8838 41.5728 21.8838C41.5228 21.8867 41.4713 21.8897 41.4213 21.8926H41.3875V21.8941C41.2213 21.9029 41.0566 21.9117 40.8905 21.9206C40.8905 21.9206 40.889 21.9206 40.8875 21.9206C40.8802 21.9206 40.8728 21.9206 40.8684 21.9206H40.842V23.5468L40.7817 23.538C40.7773 23.538 40.7729 23.538 40.7684 23.5365H40.7655C40.7582 23.5351 40.7508 23.5336 40.7434 23.5321L40.6714 23.5233C40.4876 23.5027 40.3023 23.4998 40.1185 23.5233C39.8906 23.5512 39.6745 23.6159 39.473 23.7262C39.0937 23.9321 38.8305 24.2438 38.657 24.6334C38.5437 24.8864 38.482 25.1525 38.4614 25.4289C38.4379 25.7465 38.4555 26.0612 38.5437 26.37C38.5908 26.5332 38.6628 26.6861 38.7672 26.8214C38.9687 27.0831 39.2436 27.2052 39.5671 27.2287C39.7053 27.239 39.8421 27.2331 39.9788 27.2081C40.1406 27.1787 40.292 27.1228 40.4288 27.0331C40.617 26.9096 40.7508 26.7435 40.8493 26.5494L40.9522 26.2994L41.0361 26.0436V26.3626L41.0331 26.3656C41.0331 26.4597 41.0331 26.5538 41.0346 26.6479C41.0375 26.7273 41.0464 26.8067 41.0655 26.8832C41.114 27.0684 41.2331 27.1831 41.4242 27.2199C41.5316 27.2405 41.6389 27.2346 41.7477 27.2199C41.8815 27.2022 42.0036 27.1596 42.1153 27.0949C42.1433 27.0787 42.1697 27.0611 42.1962 27.0434C42.2153 27.0302 42.2344 27.0155 42.2535 27.0008L42.2888 26.9729L42.283 26.9714Z" fill="#1866AC"/>
</g>
</g>
<defs>
<clipPath id="clip0_5637_1808">
<rect width="44.5312" height="44.5312" rx="4" fill="white"/>
</clipPath>
<clipPath id="clip1_5637_1808">
<rect width="40.1875" height="10.6281" fill="white" transform="translate(2.09546 16.6255)"/>
</clipPath>
</defs>
</svg>
