<svg width="48" height="48" viewBox="0 0 48 48" fill="none" xmlns="http://www.w3.org/2000/svg">
<rect width="48" height="48" rx="4" fill="white"/>
<path d="M10.0687 31.6818C14.5312 23.8182 19.0375 15.9091 23.5 8L23.8937 8.09091C25.5125 10.7727 27 13.5455 28.575 16.2273C28.925 16.7727 29.4062 17.5 28.9688 18.1364C27.4375 21 25.775 23.8636 24.2438 26.7727C27.7438 26.7727 31.2437 26.7273 34.7437 26.7727C36.8 30.7273 38.8563 34.6818 41 38.5909V38.9545C37.4562 38.9545 33.9125 38.9545 30.3687 39C28.0938 35.1364 26.1687 31.0455 23.8937 27.1818C21.4438 31 19.5187 35.1364 17.1125 39C13.4375 38.9545 9.71875 39.0455 6 38.7273V38.6364C7.4875 36.4091 8.66875 34 10.0687 31.6818Z" fill="#AC265B" stroke="#AC265B" stroke-width="0.09375"/>
</svg>
