<svg width="158" height="35" viewBox="0 0 158 35" fill="none" xmlns="http://www.w3.org/2000/svg">
<path d="M12.5764 27.9857C13.0651 27.3709 13.8503 26.5654 14.9182 26.0308C15.5251 25.7271 16.2726 25.9713 16.5578 26.5715C17.3392 28.2178 19.1949 31.356 22.0141 31.3937C22.6687 31.4022 23.3094 31.2236 23.8798 30.9138C24.763 30.4327 26.5345 29.3441 27.4353 27.9371C27.6941 27.5325 28.2532 27.4256 28.6376 27.7209C29.4479 28.3429 30.1327 29.7401 27.125 32.5661C27.125 32.5661 26.939 32.7265 26.5973 32.961C22.8659 35.5319 17.7639 35.0811 14.4999 31.9708C13.7863 31.2904 13.0413 30.5189 12.5349 29.8288C12.1266 29.2736 12.148 28.524 12.5777 27.9845L12.5764 27.9857Z" fill="black"/>
<path d="M7.58364 21.5706C7.82989 21.7298 8.06106 22.0092 7.96306 22.4843C7.89899 22.7929 7.66907 23.0444 7.36378 23.1525C6.00943 23.6349 1.51169 25.1378 0.0832208 24.3942C0.0832208 24.3942 -0.436909 24.1427 1.12348 23.7661C1.12348 23.7661 5.73806 22.245 6.86626 21.5706C7.08613 21.4394 7.36881 21.4321 7.58364 21.5706Z" fill="black"/>
<path d="M21.8068 10.5983C21.8068 10.5983 22.7968 9.80005 23.8145 10.139C24.067 10.2229 24.2567 10.4331 24.3057 10.687C24.3748 11.0442 24.3208 11.5982 23.6047 12.1133C23.4464 12.2263 23.2918 12.343 23.1473 12.473C22.7717 12.8083 21.901 13.4498 20.9337 13.2056C20.6384 13.1315 20.4072 12.9067 20.3595 12.6163C20.2879 12.1875 20.4713 11.4804 21.8068 10.5995V10.5983Z" fill="black"/>
<path d="M31.5549 3.20762C30.2847 1.12639 27.909 -0.0982977 25.4126 0.00618935C20.9375 0.193294 16.7739 2.6293 16.7739 2.6293C15.2135 3.49314 14.123 4.40437 14.123 4.40437C6.32233 10.4391 9.96323 24.1427 9.96323 24.1427C9.4431 25.0223 2.81334 26.3345 2.81334 26.3345C0.992883 26.7658 2.81334 27.2858 2.81334 27.2858C12.0437 28.1654 24.655 19.2391 24.655 19.2391C34.9684 12.7014 33.609 6.56822 31.5561 3.20641L31.5549 3.20762ZM19.7263 17.4567L15.8392 19.2962C14.623 11.2471 20.6008 7.07364 24.0532 5.36297C24.5482 5.11755 25.1513 5.20138 25.5558 5.57073C28.8525 8.57899 26.7795 11.9129 24.5193 14.146C23.1361 15.5116 21.5028 16.616 19.7276 17.4567H19.7263Z" fill="black"/>
<path d="M42.6174 22.6013V10.7324H49.8432V12.8726H45.2414V15.3132H49.8432V17.4696H45.2414V20.4449H49.8432V22.6013H42.6174Z" fill="black"/>
<path d="M52.417 22.601V10.7322H55.041V20.4446H59.232V22.601H52.417Z" fill="black"/>
<path d="M60.8838 22.601V10.7322H68.1096V12.8724H63.5078V15.3129H68.1096V17.4693H63.5078V20.4446H68.1096V22.601H60.8838Z" fill="black"/>
<path d="M70.6834 22.601V10.7322H77.9092V12.8724H73.3074V15.3129H77.9092V17.4693H73.3074V22.601H70.6834Z" fill="black"/>
<path d="M79.9898 22.601V10.7322H82.6138V22.601H79.9898Z" fill="black"/>
<path d="M85.4133 22.6009V10.732H88.1376L93.5695 17.639C93.726 17.833 93.898 18.1079 94.0855 18.4614C94.273 18.8148 94.4665 19.2329 94.6683 19.7134C94.6074 19.3623 94.5621 19.0134 94.5346 18.6669C94.5059 18.3216 94.4928 17.8885 94.4928 17.3699V10.7297H96.9997V22.5986H94.4259L88.8423 15.5623C88.6859 15.3682 88.5151 15.0934 88.3311 14.7388C88.1472 14.3853 87.9513 13.9626 87.7447 13.4706C87.8056 13.8113 87.851 14.1555 87.8785 14.5043C87.9059 14.8531 87.9203 15.292 87.9203 15.8222V22.5997H85.4133V22.6009Z" fill="black"/>
<path d="M112.469 17.3203C112.348 15.6605 112.194 13.5018 112.194 12.3064H112.16C111.696 13.5018 111.163 14.7966 110.425 16.491L107.746 22.601H107.111L104.604 16.573C103.883 14.8301 103.35 13.5007 102.973 12.3052H102.938C102.887 13.6 102.801 15.642 102.647 17.4854L102.235 22.5998H101.41L102.337 11.4089H103.299L106.08 18.0837C106.664 19.479 107.11 20.6409 107.454 21.6539H107.488C107.798 20.7079 108.261 19.5783 108.913 18.0999L111.832 11.4089H112.828L113.653 22.5998H112.828L112.468 17.3191L112.469 17.3203Z" fill="black"/>
<path d="M127.045 16.8559C127.045 20.7252 124.195 22.8007 121.173 22.8007C117.877 22.8007 115.421 20.426 115.421 17.155C115.421 13.6346 117.996 11.2102 121.294 11.2102C124.592 11.2102 127.046 13.6346 127.046 16.8559H127.045ZM116.297 17.1215C116.297 19.7619 118.168 22.1354 121.208 22.1354C124.248 22.1354 126.171 19.8935 126.171 16.9217C126.171 14.4974 124.539 11.8743 121.259 11.8743C117.98 11.8743 116.297 14.3645 116.297 17.1215Z" fill="black"/>
<path d="M129.208 22.601V11.4101H129.997L135.234 18.3009C136.299 19.6961 136.985 20.5762 137.587 21.5718L137.622 21.5384C137.501 20.2436 137.485 18.9153 137.485 17.1874V11.4089H138.309V22.5998H137.536L132.471 15.9412C131.493 14.6464 130.599 13.4672 129.981 12.4704L129.929 12.5039C130.015 13.7663 130.032 14.9617 130.032 16.6215V22.5986H129.208V22.601Z" fill="black"/>
<path d="M147.321 17.0384H142.17V21.9195H147.905V22.5998H141.329V11.4089H147.614V12.0892H142.171V16.357H147.323V17.0373L147.321 17.0384Z" fill="black"/>
<path d="M152.849 22.6008V17.819L148.796 11.4099H149.758L151.904 14.8969C152.453 15.7932 152.882 16.4573 153.312 17.2381H153.347C153.724 16.5243 154.222 15.777 154.79 14.8969L157.038 11.4099H158L153.691 17.8525V22.6019H152.85L152.849 22.6008Z" fill="black"/>
</svg>
