<svg width="16" height="16" viewBox="0 0 16 16" fill="none" xmlns="http://www.w3.org/2000/svg">
<path d="M7.33325 5.99992H8.66658V4.66658H7.33325M7.99992 13.3333C5.05992 13.3333 2.66659 10.9399 2.66659 7.99992C2.66659 5.05992 5.05992 2.66659 7.99992 2.66659C10.9399 2.66659 13.3333 5.05992 13.3333 7.99992C13.3333 10.9399 10.9399 13.3333 7.99992 13.3333ZM7.99992 1.33325C7.12444 1.33325 6.25753 1.50569 5.4487 1.84072C4.63986 2.17575 3.90493 2.66682 3.28587 3.28587C2.03563 4.53612 1.33325 6.23181 1.33325 7.99992C1.33325 9.76803 2.03563 11.4637 3.28587 12.714C3.90493 13.333 4.63986 13.8241 5.4487 14.1591C6.25753 14.4941 7.12444 14.6666 7.99992 14.6666C9.76803 14.6666 11.4637 13.9642 12.714 12.714C13.9642 11.4637 14.6666 9.76803 14.6666 7.99992C14.6666 7.12444 14.4941 6.25753 14.1591 5.4487C13.8241 4.63986 13.333 3.90493 12.714 3.28587C12.0949 2.66682 11.36 2.17575 10.5511 1.84072C9.7423 1.50569 8.8754 1.33325 7.99992 1.33325ZM7.33325 11.3333H8.66658V7.33325H7.33325V11.3333Z" fill="#8C8C8C"/>
</svg>
