<svg width="49" height="48" viewBox="0 0 49 48" fill="none" xmlns="http://www.w3.org/2000/svg">
<rect x="0.532227" width="48" height="48" rx="4" fill="white"/>
<path d="M42.6078 18.648C43.437 18.289 44.2266 17.8901 45.0163 17.5311C43.9897 21.879 40.4363 25.0701 36.6064 27.0645C37.633 25.9078 38.9359 25.0302 39.8835 23.7936C41.147 22.3177 41.9761 20.5227 42.6078 18.648Z" fill="#F68026"/>
<path fill-rule="evenodd" clip-rule="evenodd" d="M45.641 16.7705L45.4379 17.6307C44.3702 22.1531 40.6901 25.4266 36.8064 27.4491L36.2817 26.7767C36.7481 26.2511 37.2695 25.7811 37.77 25.33C37.8416 25.2655 37.9127 25.2014 37.9831 25.1376C38.5548 24.6198 39.0913 24.1141 39.539 23.5299L39.5533 23.5112L39.5537 23.5116C40.7663 22.0951 41.5735 20.3585 42.1965 18.5095L42.2581 18.3267L42.4352 18.25C42.9262 18.0374 43.3891 17.8173 43.8544 17.5962C44.1772 17.4427 44.5012 17.2887 44.8365 17.1363L45.641 16.7705ZM42.9563 18.9686C42.3243 20.8015 41.4882 22.5823 40.2202 24.0667C40.1611 24.1435 40.1009 24.2189 40.0396 24.293C41.9821 22.6853 43.5582 20.6908 44.3409 18.3254C44.3122 18.339 44.2835 18.3526 44.2547 18.3663C43.8296 18.5681 43.3934 18.7753 42.9563 18.9686Z" fill="#F68026"/>
<path d="M6.67792 16.0153C7.54654 16.0153 8.41516 16.0153 9.2443 16.0153C9.44172 17.531 9.63913 19.0069 9.87603 20.4828C10.5078 19.0069 11.1395 17.4911 11.8107 16.0153C12.6793 16.0153 13.5874 16.0153 14.456 16.0153C14.2586 18.608 14.1402 21.2008 14.1007 23.8335C13.469 23.8335 12.7978 23.8335 12.1266 23.8335C12.2845 22.0784 12.4424 20.3632 12.4424 18.608C11.5343 20.2834 10.9421 22.1183 10.1919 23.8335C9.67861 23.8335 9.16534 23.8335 8.65206 23.7936C8.49413 22.0385 8.21775 20.2435 8.02033 18.4485C7.54654 20.2036 7.27016 22.0385 6.83585 23.7936C6.20412 23.8335 5.5724 23.8335 4.94067 23.8335C5.53291 21.2407 6.12516 18.6479 6.67792 16.0153ZM16.0748 16.0551C16.7855 16.0153 17.4962 16.0153 18.2069 16.0153C17.8516 18.608 17.4567 21.2008 17.1409 23.8335C16.4302 23.8335 15.7195 23.8335 15.0088 23.8335C15.3641 21.2407 15.759 18.6479 16.0748 16.0551ZM19.4704 16.0153C20.9312 16.095 22.5105 15.7759 23.9319 16.3743C25.5507 17.4513 24.8795 20.4429 22.9054 20.6025C23.4186 21.6396 23.9319 22.7565 24.4452 23.8335C23.774 23.8335 23.1028 23.8335 22.3921 23.8335C21.8788 22.5969 21.405 21.3205 20.8128 20.1637C20.5759 21.3604 20.4574 22.5969 20.2995 23.7936C19.6678 23.8335 18.9966 23.8335 18.3648 23.8335C18.7202 21.2407 19.115 18.6479 19.4704 16.0153ZM28.0381 16.0153C28.9068 16.0153 29.7754 16.0153 30.6045 16.0153C31.0388 18.6479 31.4337 21.2407 31.9075 23.8335C31.2363 23.8335 30.565 23.8335 29.8938 23.8335C29.8544 23.275 29.7754 22.7565 29.7359 22.198C28.9068 22.198 28.0776 22.2379 27.2485 22.2778C27.0511 22.7964 26.8537 23.3149 26.6562 23.8335C25.985 23.8335 25.2743 23.8335 24.6031 23.8335C25.7876 21.2407 26.8931 18.608 28.0381 16.0153ZM33.4473 16.0153C35.0266 16.0551 36.6454 16.0551 38.2642 16.0153C38.2247 16.5737 38.1458 17.1321 38.1063 17.6906C37.1192 17.6906 36.1321 17.6507 35.1451 17.6507C35.0661 18.1294 35.0266 18.6479 34.9871 19.1266C35.8558 19.1266 36.7244 19.1266 37.593 19.0867C37.5535 19.6452 37.4745 20.2036 37.4351 20.7222C36.527 20.7222 35.6189 20.6823 34.7107 20.6823C34.6318 21.2008 34.5923 21.6795 34.5133 22.1582C35.5004 22.1582 36.4875 22.1582 37.4745 22.1582C37.4351 22.7166 37.3561 23.275 37.2771 23.7936C35.6189 23.8335 33.9606 23.7936 32.3023 23.8335C32.6971 21.2407 33.0525 18.608 33.4473 16.0153ZM7.66499 27.5033C8.53361 27.5033 9.36275 27.5033 10.2314 27.5432C10.3893 28.5404 10.5472 29.5376 10.7052 30.5747C9.95499 30.3753 9.20482 30.1758 8.45465 30.0163C7.90189 30.5348 7.34913 31.0534 6.79637 31.6118C10.3893 31.931 14.0217 32.1703 17.6147 31.8911C17.9305 33.5265 16.825 35.4412 15.0878 35.521C13.7848 35.7204 12.5609 35.0822 11.5738 34.2445C11.8897 33.726 12.2055 33.1675 12.5214 32.649C13.311 33.4866 15.2457 34.444 15.601 32.6888C14.0612 32.6091 12.5609 32.6091 11.0605 32.5293C11.179 33.4866 11.3369 34.4041 11.5343 35.3215C10.8631 35.3215 10.1919 35.3215 9.52068 35.3215C9.44172 34.6434 9.32327 34.0052 9.20482 33.3271C8.53361 33.3271 7.82292 33.3271 7.11223 33.3271C6.83585 34.0052 6.55947 34.6434 6.28309 35.3215C5.61188 35.3215 4.90119 35.3215 4.22998 35.3215C5.37498 32.7287 6.51999 30.0961 7.66499 27.5033Z" fill="#00447B"/>
<path d="M13.3935 27.7475C14.6174 26.7104 16.4731 27.0694 17.7761 27.8273C17.5392 28.306 17.3023 28.8245 17.1048 29.3032C16.3547 29.024 15.0517 28.1065 14.7359 29.383C14.9728 30.1807 15.9598 30.4201 16.5521 30.8588C15.2492 30.819 13.9067 30.7392 12.6038 30.6993C12.4064 29.6622 12.5248 28.4655 13.3935 27.7475ZM19.699 27.4873C20.9624 26.7693 22.4628 27.1682 23.6473 27.8064C23.4498 28.325 23.2129 28.8834 22.976 29.402C22.2654 29.1227 21.5547 28.325 20.8045 28.9632C20.3307 29.9205 21.4757 30.2396 22.0285 30.6784C20.9229 30.7582 19.7779 30.7981 18.6724 30.8778C18.1591 29.7211 18.5145 28.1255 19.699 27.4873ZM25.156 27.5033C26.7748 27.5033 28.3936 27.5033 30.0519 27.5033C29.9729 28.0618 29.8939 28.6202 29.815 29.1787C28.8279 29.1787 27.8014 29.1787 26.8143 29.1787C26.8143 29.4579 26.7353 29.9365 26.7353 30.2158C26.0641 30.3354 25.3929 30.4551 24.7612 30.5748C24.9191 29.5377 25.0376 28.5404 25.156 27.5033Z" fill="#00447B"/>
<path d="M30.5645 27.5033C32.0648 27.5432 33.6046 27.4235 35.105 27.623C33.5257 28.3011 31.9069 28.8595 30.2881 29.3781C30.3671 28.7399 30.4855 28.1415 30.5645 27.5033Z" fill="#004079"/>
<path d="M20.6555 31.6119C25.9462 31.0135 31.3159 29.8966 36.1328 27.5033C36.0143 28.1016 35.8959 28.7 35.7774 29.3382C35.2641 29.3382 34.7509 29.3382 34.2376 29.3382C33.9612 31.2927 33.7243 33.2473 33.4084 35.2019C32.6978 35.2019 31.9871 35.2019 31.2764 35.2019C31.5922 33.367 31.7896 31.5321 32.066 29.6972C31.1974 30.0163 30.3288 30.3354 29.4207 30.6146C29.3417 31.0933 29.2233 31.6119 29.1048 32.0905C28.1967 32.0506 27.2886 32.0506 26.3805 32.1304C26.341 32.6091 26.3015 33.0878 26.262 33.5664C27.2491 33.5265 28.2362 33.5265 29.2233 33.5265C29.1838 33.9254 29.0653 34.7631 29.0258 35.2019C27.3676 35.162 25.7093 35.162 24.0905 35.2019C24.2089 34.0451 24.4064 32.8883 24.5643 31.7315C24.3669 31.7315 23.8931 31.7714 23.6957 31.8113C23.6167 32.7686 23.6957 33.9653 22.827 34.6434C21.3267 35.9996 18.9972 35.4013 17.6548 34.1249C17.9706 33.6063 18.326 33.0878 18.6419 32.5692C19.3131 33.0479 20.0238 33.726 20.9319 33.5664C21.6031 33.4866 21.761 32.3698 21.0503 32.2102C20.2212 32.1703 19.3525 32.29 18.4839 32.3698C18.5629 32.1703 18.6419 31.7714 18.7208 31.572C19.3525 31.6916 19.9843 31.6916 20.6555 31.6119Z" fill="#00447B"/>
<path d="M20.8525 19.6053C20.971 18.8873 21.0894 18.1693 21.1684 17.4513C21.7212 17.571 22.7872 17.4114 22.7477 18.289C22.9451 19.4059 21.6422 19.6053 20.8525 19.6053ZM27.8805 20.6823C28.2753 19.6851 28.6701 18.6879 29.1045 17.7305C29.2624 18.7277 29.3808 19.6851 29.4993 20.6424C28.9465 20.6823 28.4332 20.6823 27.8805 20.6823Z" fill="white"/>
</svg>
