<svg width="48" height="48" viewBox="0 0 48 48" fill="none" xmlns="http://www.w3.org/2000/svg">
<rect width="48" height="48" rx="4" fill="white"/>
<path d="M20.9404 4.59257C24.9684 3.55632 29.3351 3.88894 33.1748 5.51367C37.3408 7.24075 40.8668 10.5158 43 14.5456C42.222 14.5456 41.444 14.5456 40.666 14.5456C38.3823 10.7972 34.7183 7.96996 30.5648 6.75461C27.3902 5.82071 23.9645 5.82071 20.8024 6.75461C18.0167 7.57337 15.4193 9.08296 13.3488 11.1554C10.2118 14.2258 8.29195 18.5371 8.04099 22.9635C11.4164 22.9635 14.7919 22.9635 18.1548 22.9635C18.9076 22.9635 19.6605 22.9891 20.4134 22.9379C19.4598 22.7716 18.4936 22.4006 17.8285 21.6586C17.2262 21.019 16.9878 19.9699 17.4521 19.1895C17.9665 18.2428 19.2339 17.9742 20.175 18.3708C21.0785 18.729 21.7937 19.4454 22.4211 20.1746C23.2116 21.0829 23.9771 22.0424 24.9684 22.746C24.8429 21.1213 24.1026 19.6501 23.7261 18.0893C23.5881 17.4241 23.5504 16.7333 23.701 16.068C23.8892 15.2237 24.5794 14.4689 25.4452 14.3665C26.1855 14.2642 26.9384 14.6608 27.3274 15.3004C27.867 16.132 27.8293 17.2066 27.616 18.1405C27.227 19.6885 26.5243 21.1469 26.3863 22.746C27.7792 21.7865 28.6701 20.3025 29.8998 19.1767C30.6276 18.5499 31.6063 18.0254 32.5976 18.2428C33.4383 18.3836 34.141 19.164 34.141 20.0467C34.1912 21.0573 33.4885 21.9401 32.6227 22.3622C30.9036 23.2706 28.8583 23.1042 27.1267 24.0126C28.5697 24.7162 30.2009 24.7801 31.7193 25.2535C32.5349 25.5221 33.3756 25.9571 33.8273 26.7375C34.2163 27.3644 34.2791 28.2343 33.8775 28.8867C33.4885 29.5264 32.7106 29.8718 31.9702 29.8078C31.1797 29.7695 30.477 29.3217 29.8872 28.81C28.6575 27.697 27.7792 26.2002 26.3863 25.2663C26.5243 26.7887 27.1643 28.1831 27.5658 29.6543C27.7792 30.4347 27.8544 31.2919 27.6286 32.0722C27.3651 32.9294 26.5996 33.6714 25.6836 33.6586C24.8554 33.6842 24.1402 33.0573 23.814 32.3153C23.5379 31.6117 23.563 30.8441 23.6885 30.1149C24.0398 28.4774 24.8303 26.955 24.9684 25.2663C23.5755 26.2258 22.6721 27.7226 21.4298 28.8484C20.6393 29.552 19.5225 30.0637 18.4685 29.6799C17.4772 29.3601 16.925 28.1064 17.3517 27.1341C17.816 25.8676 19.1837 25.3047 20.3883 25.0616C16.2725 24.9976 12.1568 25.0488 8.04099 25.036C8.25431 28.6053 9.52166 32.1234 11.6925 34.9507C14.1017 38.149 17.5901 40.4773 21.4424 41.4368C24.6547 42.2172 28.0803 42.1149 31.2173 41.0274C35.1198 39.7353 38.5078 36.9848 40.666 33.4411C41.444 33.4411 42.222 33.4411 43 33.4411C41.2182 36.8441 38.445 39.6842 35.1323 41.5392C32.171 43.1767 28.8081 44.0722 25.4452 43.9954C21.3922 43.9827 17.3768 42.6138 14.1017 40.1831C11.0525 37.9443 8.68094 34.7844 7.3132 31.2151C5.83252 27.3132 5.59411 22.9251 6.64815 18.8825C7.652 14.9678 9.88556 11.3985 12.8971 8.78872C15.2185 6.78019 17.9791 5.32177 20.9404 4.59257Z" fill="#183883" stroke="#183883" stroke-width="0.09375"/>
</svg>
