<svg width="45" height="45" viewBox="0 0 45 45" fill="none" xmlns="http://www.w3.org/2000/svg">
<g clip-path="url(#clip0_4232_848)">
<rect x="0.234375" y="0.171753" width="44.5312" height="44.5312" rx="4" fill="white"/>
<g clip-path="url(#clip1_4232_848)">
<rect x="3" y="12" width="21.7437" height="21.7437" rx="1.95311" fill="white"/>
<mask id="mask0_4232_848" style="mask-type:alpha" maskUnits="userSpaceOnUse" x="2" y="11" width="24" height="24">
<rect x="2.42773" y="11.4277" width="22.8881" height="22.8881" fill="black"/>
</mask>
<g mask="url(#mask0_4232_848)">
<path d="M14.4218 29.9712H7.28711V29.7972L12.5367 29.5941C13.5228 29.5651 14.5089 29.5071 15.437 29.1881C17.3512 28.55 18.8883 27.2449 19.3524 25.6207C19.8454 23.8806 18.7143 22.1984 16.6261 22.0534C18.3953 21.5313 19.9034 20.4002 20.3095 18.979C20.8315 17.0938 19.8744 16.1658 18.2792 15.8177C20.9475 15.7887 23.0067 16.6588 22.3107 19.2111C21.9046 20.6612 20.3675 21.7633 18.5983 22.2274C20.6575 22.3724 21.7886 24.3446 21.2376 26.0558C20.6575 27.854 19.2363 28.9561 17.2931 29.5941C16.3651 29.9132 15.3789 29.9712 14.3928 30.0002" fill="#FF5C34"/>
<path d="M10.6511 29.0721L7.28674 29.2171C7.28674 29.2171 7.28674 29.1011 7.28674 29.0141L15.7846 26.5488V26.4038L7.17072 28.492C7.17072 28.405 7.14172 28.376 7.11272 28.318L16.1617 23.3005L16.1037 23.1555L6.82269 27.912C6.82269 27.912 6.76468 27.8249 6.70667 27.7669L17.4668 17.6159L17.3798 17.4999L6.32964 27.4189C6.32964 27.4189 6.24263 27.3609 6.18462 27.3319L14.0444 15.8467H13.8994L5.72057 27.0999C5.66257 27.0999 5.63356 27.0709 5.57556 27.0419L10.071 15.9627H9.95501L4.87949 26.9549C4.82148 26.9549 4.76347 26.9549 4.70547 26.9549H4.64746L7.9248 15.1796H14.0154C16.9157 15.0346 19.178 15.8177 18.4239 18.515C18.0178 19.9651 16.5097 21.0963 14.7405 21.5603C16.8287 21.7343 18.0178 23.4165 17.5248 25.1567C17.0608 26.7808 15.4656 28.028 13.5514 28.695C12.6233 29.0141 11.6372 29.0721 10.6511 29.1011" fill="#FF5C34"/>
</g>
</g>
<mask id="mask1_4232_848" style="mask-type:alpha" maskUnits="userSpaceOnUse" x="-1" y="-2" width="47" height="48">
<rect x="-0.9375" y="-1.00024" width="46.875" height="46.875" fill="black"/>
</mask>
<g mask="url(#mask1_4232_848)">
<path d="M39.4882 14.5904H24.3354V29.7431H39.4882V14.5904Z" fill="url(#paint0_linear_4232_848)"/>
<path d="M39.0134 22.2706C39.0134 25.4435 39.1617 28.6757 39.1617 28.6757C39.1617 29.0315 38.9245 29.2688 38.628 29.2688H25.5213C25.2248 29.2688 25.0172 29.0019 24.9875 28.6757C24.9875 28.6757 24.6021 25.918 24.6021 21.6776C24.6021 17.4372 24.9875 15.4504 24.9875 15.4504C25.0468 15.0946 25.2248 14.8574 25.5213 14.8574H38.628C38.9245 14.8574 39.1617 15.1242 39.1617 15.4504C39.1617 15.4504 39.0134 19.0978 39.0134 22.241V22.2706Z" fill="url(#paint1_linear_4232_848)"/>
<path d="M36.108 18.7122C35.1591 19.2756 34.8923 19.3053 33.8544 19.928L33.9137 19.8094C34.4475 19.2163 34.6847 18.9791 35.0405 18.475C34.0916 18.5343 32.7276 18.6529 31.749 18.8605L31.8083 18.7418C32.6979 18.297 34.3288 17.8819 35.1591 17.7633C34.9516 17.4668 33.291 16.5772 32.8758 16.3993L32.9351 16.2806C34.2102 16.4289 35.8708 17.022 36.5825 17.4668C36.879 17.3778 37.2052 17.3482 37.7686 17.3185C37.7686 17.3185 37.6796 17.6743 37.0569 18.0895C37.2052 18.5046 36.8494 20.7879 36.5232 21.381C36.5232 20.4321 36.4342 19.2163 36.0784 18.6825L36.108 18.7122Z" fill="#00945E"/>
<path d="M29.2585 26.8965L29.3178 26.7779C28.8137 26.6 28.3096 26.4221 27.9241 26.0662C28.0427 25.7104 28.191 25.4435 28.4282 25.0877L28.4875 24.9691C28.0723 25.0284 27.6869 25.1766 27.3014 25.2656C27.0048 24.7615 26.8862 24.0498 26.738 23.3975L26.6787 23.5161C26.5897 24.2871 26.56 24.8208 26.6787 25.4435C26.3821 25.5325 26.1152 25.5325 25.8484 25.6511L25.7891 25.7401C26.1746 25.9773 26.5007 26.1552 26.9455 26.3924C27.1828 26.8965 27.42 27.2524 27.8351 27.6379L27.8944 27.5192C27.8351 27.2227 27.7165 26.9855 27.7758 26.6593C28.2799 26.8076 28.6951 26.8669 29.2585 26.8965Z" fill="#00945E"/>
<path d="M30.6221 19.2756C30.6221 19.2756 30.4146 19.6315 30.2663 20.1059H30.2366C31.3931 20.2542 32.5199 20.7286 32.7868 20.9066L32.7275 21.0252C31.5117 20.8176 30.889 20.8472 30.4146 20.8769C29.9698 20.9066 29.8808 20.9659 29.8808 20.9659C29.6139 21.5293 29.4657 22.4485 29.4063 22.8044L29.347 22.923C29.1395 22.3892 28.8133 21.3217 28.8133 21.3217C28.1906 21.6479 26.7969 22.9823 26.7969 22.9823C27.5679 21.4403 28.3685 20.7286 28.3685 20.7286C28.1016 20.4618 27.3899 20.3135 26.8858 20.2838L26.9451 20.1652C27.2713 20.0763 27.9237 20.017 28.3981 20.017C28.9319 20.017 29.2581 20.017 29.2581 20.017C29.7325 19.6315 30.4442 19.3053 30.6814 19.2756H30.6221Z" fill="#00945E"/>
<path d="M32.1058 25.9178C31.8685 26.244 31.661 26.5109 31.3941 26.8074C31.0086 26.926 30.5045 26.8667 30.1487 26.8667L30.0894 26.9853C30.3562 27.1336 30.6528 27.2226 30.9196 27.2819C30.6824 27.4895 30.3562 27.6674 30.1487 27.8156L30.0894 27.9046C30.5638 27.786 31.1865 27.5784 31.661 27.3115C31.8982 27.3115 32.1354 27.3115 32.2837 27.2819L32.343 27.1633C32.343 27.0447 32.2244 26.9853 32.1947 26.8371C32.6395 26.5109 32.9361 26.1847 33.3215 25.8289L33.3808 25.7103C33.025 25.9475 32.5802 26.3033 32.1651 26.5109C32.1651 26.3033 32.1354 26.1254 32.1354 25.8882L32.1058 25.9178Z" fill="#00945E"/>
<path d="M36.1383 18.5936C35.1894 19.157 34.9225 19.1867 33.8847 19.8094C34.4777 19.157 34.6853 18.8901 35.0411 18.3564C34.0922 18.4157 32.7282 18.5046 31.7793 18.7419C32.6392 18.2971 34.2998 17.793 35.1894 17.6743C34.9818 17.3778 33.3213 16.4882 32.9061 16.3103C34.2109 16.3993 35.8418 16.9034 36.6127 17.3778C36.9093 17.2889 37.2355 17.2889 37.7989 17.2295C37.6506 17.4668 37.6506 17.615 37.0872 18.0005C37.2355 18.4157 36.8796 20.699 36.5534 21.292C36.5534 20.3431 36.4645 19.1273 36.1086 18.5936H36.1383Z" fill="white"/>
<path d="M29.2884 26.7779C28.7546 26.5703 28.3691 26.3628 27.9243 25.9476C28.043 25.5918 28.1912 25.3249 28.4285 24.9691C27.9837 25.0284 27.6575 25.0877 27.3016 25.147C27.0051 24.6132 26.8568 24.0795 26.7086 23.3678C26.6196 24.1388 26.59 24.6725 26.7086 25.2952C26.3527 25.3842 26.1155 25.4732 25.8486 25.5918C26.2341 25.829 26.5603 26.0366 27.0051 26.2145C27.2423 26.7186 27.4796 27.0744 27.8947 27.4599C27.8057 27.1337 27.7761 26.8669 27.8057 26.511C28.3098 26.6593 28.725 26.7482 29.2884 26.7482V26.7779Z" fill="white"/>
<path d="M30.7113 19.1868C30.5334 19.3943 30.3555 19.8095 30.2962 19.9874C31.6899 20.1653 32.7871 20.877 32.7871 20.877C31.5713 20.6694 30.9486 20.6991 30.4741 20.7287C30.0293 20.7584 29.9404 20.8177 29.9404 20.8177C29.6142 21.5294 29.4066 22.7748 29.4066 22.7748C29.199 22.241 28.8729 21.1735 28.8729 21.1735C28.2501 21.4997 26.8564 22.8341 26.8564 22.8341C27.6274 21.2921 28.4281 20.5805 28.4281 20.5805C28.1612 20.3136 27.4495 20.1653 26.9454 20.1357C27.2123 20.017 27.8943 19.8984 28.4281 19.8688C28.9618 19.8688 29.288 19.8688 29.288 19.8688C29.7624 19.4833 30.4741 19.1868 30.741 19.1571L30.7113 19.1868Z" fill="white"/>
<path d="M32.1653 25.829C31.9281 26.1551 31.7205 26.422 31.4537 26.7186C30.9792 26.8372 30.6234 26.8965 30.1489 26.8965C30.4158 27.0447 30.7123 27.1337 30.9792 27.193C30.6827 27.4599 30.4455 27.6378 30.1489 27.8157C30.6234 27.6971 31.2461 27.4895 31.7205 27.2227C31.9578 27.2227 32.195 27.2227 32.3433 27.193C32.3433 27.193 32.2839 26.9558 32.2246 26.7779C32.6694 26.4517 32.966 26.1255 33.3515 25.7697C32.966 26.0365 32.6398 26.2441 32.195 26.4517C32.195 26.2441 32.1653 26.0662 32.1653 25.829Z" fill="white"/>
</g>
</g>
<defs>
<linearGradient id="paint0_linear_4232_848" x1="31.897" y1="14.2346" x2="31.897" y2="30.2176" gradientUnits="userSpaceOnUse">
<stop stop-color="#00945E"/>
<stop offset="0.6" stop-color="#75CBAB"/>
<stop offset="1" stop-color="#00945E"/>
</linearGradient>
<linearGradient id="paint1_linear_4232_848" x1="31.8967" y1="10.8542" x2="31.8967" y2="28.824" gradientUnits="userSpaceOnUse">
<stop stop-color="#00945E"/>
<stop offset="0.3" stop-color="#75CBAB"/>
<stop offset="0.55" stop-color="#009A66"/>
<stop offset="0.66" stop-color="#009763"/>
<stop offset="0.68" stop-color="#009662"/>
<stop offset="0.8" stop-color="#00945E"/>
<stop offset="0.88" stop-color="#00945E"/>
<stop offset="0.94" stop-color="#009A66"/>
<stop offset="1" stop-color="#00A574"/>
</linearGradient>
<clipPath id="clip0_4232_848">
<rect x="0.234375" y="0.171753" width="44.5312" height="44.5312" rx="4" fill="white"/>
</clipPath>
<clipPath id="clip1_4232_848">
<rect x="3" y="12" width="21.7437" height="21.7437" rx="1.95311" fill="white"/>
</clipPath>
</defs>
</svg>
