<svg width="48" height="48" viewBox="0 0 48 48" fill="none" xmlns="http://www.w3.org/2000/svg">
<rect width="48" height="48" rx="4" fill="white"/>
<path d="M21.5879 12.0542C22.9149 11.3012 24.6106 11.3765 26.0851 11C26.896 12.7319 28.2231 14.1627 29.4764 15.4428C29.4764 16.497 29.4764 17.4759 29.4764 18.4548C32.6465 21.6175 36.0378 24.7048 40.2401 26.4367C40.9773 28.1687 42.4518 29.2982 44 30.1265C43.3365 30.5783 42.673 31.0301 41.9357 31.5572C38.9868 28.4699 35.448 26.0602 32.1304 23.4247C30.5822 21.1657 27.707 19.1325 28.5917 15.9699C28.0019 15.2922 27.3384 14.6145 26.7486 14.012C26.38 14.3133 25.6427 14.9157 25.2741 15.2922C25.2004 16.9488 25.1267 18.6807 24.0208 20.0361C24.9055 20.9398 25.7902 21.8434 26.7486 22.747C26.38 23.1235 25.6427 23.8765 25.2741 24.1777C26.0851 25.0813 26.9698 25.9849 27.8544 26.8133C28.3705 28.4699 28.8866 30.1265 29.6238 31.7078C30.5822 31.256 31.5406 30.8042 32.5728 30.3524C31.9093 29.1476 31.3932 27.9428 30.8771 26.6627C33.1626 27.3404 33.9735 29.6747 35.1531 31.5572C33.0151 32.2349 30.9508 32.988 29.1077 34.4187C28.5917 33.1386 27.9282 32.009 27.2647 30.8042C26.7486 30.5783 26.2325 30.3524 25.6427 30.1265C25.3478 29.5241 24.758 28.4699 24.4631 27.8675C23.2836 29.9006 23.1361 32.3102 23.6522 34.5693C22.6938 35.0211 21.6616 35.4729 20.7032 36C20.482 35.6988 19.8922 35.0964 19.6711 34.7952C19.8922 33.6657 20.1134 32.6114 20.3346 31.4819C19.8185 31.4819 18.6389 31.4819 18.1229 31.4819C17.1645 32.5361 16.206 33.5151 15.2476 34.494C14.7316 34.3434 13.6257 33.9669 13.1096 33.8163C13.1096 32.7621 13.1096 31.7078 13.1096 30.6536C10.8979 30.3524 8.6862 30.2018 6.69565 31.4819C6.25331 31.4066 5.44234 31.1807 5.07372 31.1054C5.07372 30.0512 5 28.997 5 27.8675C7.87524 26.5874 10.4556 24.4036 13.6994 24.5542C14.4367 23.4247 15.0265 22.2952 15.6163 21.1657C18.344 18.6054 19.4499 14.991 21.5879 12.0542Z" fill="#0D388E" stroke="#0D388E" stroke-width="0.09375"/>
</svg>
