<svg width="48" height="48" viewBox="0 0 48 48" fill="none" xmlns="http://www.w3.org/2000/svg">
<path d="M0 4C0 1.79086 1.79086 0 4 0H44C46.2091 0 48 1.79086 48 4V44C48 46.2091 46.2091 48 44 48H4C1.79086 48 0 46.2091 0 44V4Z" fill="white"/>
<g clip-path="url(#clip0_3904_6452)">
<path fill-rule="evenodd" clip-rule="evenodd" d="M29.1135 9.65498C31.6471 9.19442 31.6471 11.6598 30.6557 13.2311C29.9397 14.396 28.6178 15.7235 26.9104 16.1028C24.7073 16.5904 23.9362 14.7482 25.2581 12.4996C25.9466 11.3076 27.3786 9.98008 29.1135 9.68207V9.65498ZM20.6867 10.6845C20.4388 10.9825 19.6127 11.6056 19.2822 11.9036C18.5937 12.5267 17.327 13.9084 16.6936 14.6127C13.1411 18.5952 9.14795 26.4789 11.5438 31.9514C12.8106 34.8773 15.3442 35.69 18.3459 35.7984C19.1996 34.0916 20.2461 29.8112 20.5214 27.8064C20.6316 27.0478 20.7142 26.1809 20.6867 25.3952C20.6316 24.5554 20.4113 24.0677 19.6402 23.9323C17.9879 23.6614 16.4457 25.3681 15.6746 24.745C15.3992 24.1219 16.1428 23.4175 16.4182 23.1195C17.74 21.6837 22.0912 18.5952 23.8536 17.8908C25.2306 17.349 27.1583 17.5928 27.6264 18.7578C27.9844 19.6789 26.993 21.7108 26.6901 22.6048C25.6987 25.4494 23.4681 31.9243 23.4956 34.5522V34.6606C26.635 33.2518 29.6092 31.3283 31.8949 28.89C32.2254 28.5378 32.5834 28.2398 32.8863 27.8606C33.1893 27.4813 33.5197 27.1833 33.8226 26.804C34.1256 26.4247 34.401 26.0725 34.7039 25.6932C35.8881 24.1761 36.907 22.4693 37.7331 20.6813C37.9259 20.2478 38.8072 17.8637 38.8898 17.7554C39.4681 13.3394 38.3941 8.89641 33.9328 7.43347C33.4096 7.27092 32.6109 7.24382 32.1428 7H30.3252C30.1325 7.05418 29.1686 7.13546 28.8381 7.18964C26.3321 7.59602 22.3941 9.24861 20.7142 10.6845H20.6867Z" fill="#A9282D"/>
<path fill-rule="evenodd" clip-rule="evenodd" d="M7.00019 31.1657V33.604C7.11035 33.8749 7.13789 34.5793 7.2205 34.9315C7.77128 37.5323 9.23083 39.6725 11.9572 40.6207C14.1052 41.3522 15.1792 41.1084 16.2807 39.6996C17.0518 38.7243 17.878 37.1259 18.3462 35.7984C15.3444 35.69 12.8109 34.8502 11.5441 31.9514C9.14822 26.506 13.1413 18.6223 16.6938 14.6127C17.3272 13.9084 18.5665 12.5267 19.2825 11.9036C19.6129 11.6056 20.4666 10.9825 20.6869 10.6844C20.1362 10.9012 18.6215 12.1203 18.1534 12.4996C14.1878 15.7777 11.0484 19.8414 8.87283 24.5825C8.23944 25.9641 7.60605 27.8605 7.30312 29.4048C7.2205 29.9195 7.19297 30.7864 6.97266 31.1657H7.00019Z" fill="#F19220"/>
<path fill-rule="evenodd" clip-rule="evenodd" d="M23.4408 34.5251C23.2205 34.9044 23.3858 36.259 23.5235 36.6924C24.2119 38.9139 26.6353 36.557 27.847 35.5817C29.6371 34.1729 31.2068 32.4661 32.6388 30.7594C35.0347 27.9147 38.2567 22.6048 38.835 17.7554C38.7524 17.8637 37.8987 20.2478 37.6784 20.6813C36.8522 22.4422 35.8333 24.1761 34.6491 25.6932C34.3462 26.0725 34.0708 26.4247 33.7679 26.804C33.4649 27.1833 33.1345 27.5084 32.8316 27.8605C32.5286 28.2398 32.1706 28.5378 31.8402 28.89C29.5269 31.3283 26.5803 33.2247 23.4684 34.6605V34.5522H23.4408V34.5251Z" fill="#F0931E"/>
<path fill-rule="evenodd" clip-rule="evenodd" d="M29.1135 9.655C27.3785 9.98009 25.9465 11.3076 25.2581 12.4725C23.9362 14.7482 24.7073 16.5634 26.9104 16.0757C28.6178 15.6964 29.9396 14.3689 30.6557 13.204C31.6195 11.6598 31.647 9.16735 29.1135 9.6279V9.655Z" fill="white"/>
</g>
<defs>
<clipPath id="clip0_3904_6452">
<rect width="32" height="34" fill="white" transform="translate(7 7)"/>
</clipPath>
</defs>
</svg>
